/* XPM */
static char * witchKittySleep001_xpm[] = {
"64 64 18 1",
" 	c None",
".	c #000000",
"+	c #6A45A5",
"@	c #221C35",
"#	c #3A2F5A",
"$	c #2A1B41",
"%	c #73A8A0",
"&	c #B5A75A",
"*	c #FAFFA5",
"=	c #625613",
"-	c #FDFFD6",
";	c #5EBE4B",
">	c #234B1B",
",	c #1C2B35",
"'	c #2A4150",
")	c #5E978E",
"!	c #3C5C71",
"~	c #FFFFFF",
"                                                                ",
"                                                                ",
"                                                                ",
"                                                                ",
"                                                                ",
"                   +                             +              ",
"                  @++                          +++@             ",
"                  @#++                        +++#@             ",
"                 @###++                      +++##@             ",
"                 @###+++                    +++###@             ",
"                 @####+++                  +++####@             ",
"                @$#####+++                +++####$              ",
"                @$#####+++++++++++++++++++++#####$              ",
"                @$######+++++++++++++++++++######$              ",
"                @$######++##############++######$@              ",
"                @$###$#+##################+#####$@              ",
"                @$$#$+######################$##$$@   %          ",
"                @$$$+#######################+$$$$@              ",
"                @$$$+########################+$$$@       %      ",
"                 @$+########++++++++++#######+$$@               ",
"                 @@#######++&&&&&&&&&&++######+@@     %         ",
"                 @######++&&&&&&&&&&&&&&++######@               ",
"                @######+&&&&&&&&&&&&&&&&&&+######@              ",
"                @#####+&&&&&*==****==&&&&&&+#####@              ",
"               @######+&&&*************&&&&+######@             ",
"              @#######+&&****************&&+#######@            ",
"             @#######&&********************&@#######@           ",
"            @$$#####@&**-==;>;-****-;>;==-**&@#####$$@          ",
"             @@$$###@&****-;>;;****;;>;-****&@###$$@@           ",
"               @@$$$$@&*********--*********&@$$$$@@             ",
"                 @@$$$@&********==********&@$$$@@               ",
"                   @@@@@&****************&@@@@@                 ",
"                        @@@************@@@                      ",
"                           @@@@@@@@@@@@                         ",
"                          @$$,'',,'',$$@                        ",
"                         @$$,)!',,'!),$$@         --            ",
"                        @$$,))!,&&,!)),$$@       -**            ",
"                       @$$$,)!',&&,'!),$$$@      ***            ",
"                       @$$$,'',&&&&,'',$$$@      ***            ",
"                      @###$$,,&&**&&,,$$###@    &**             ",
"                      @####$@&&****&&@$####@    &*&             ",
"                     @#####@&&******&&@#####@  =**              ",
"                     @####@&&********&&@####@ =&&=              ",
"                    @#####@&**********&@#####@&&=               ",
"                    @#####@************@#####@&==               ",
"                    @####@**&********&**@####@==                ",
"                   @$####@**&**-&&-**&**@####$@                 ",
"                   @$####@**&=*-&&-*=&**@####$@                 ",
"                  @$$####@***=--==--=***@####$$@                ",
"                 @$$#####@***&=-==-=&***@#####$$@               ",
"                @$######@&****&====&****&@#####$$@              ",
"               @#####$##@&*****&&&&*****&@##$####$@             ",
"             @@#########@&**************&@#########@@           ",
"           @@####$######@&**************&@######$####@@         ",
"          @#########$###@&**************&@###$#########@        ",
"         @#####$########@&**************&$########$#####@       ",
"          @@##$####$####$@*****----*****@$####$####$##@@        ",
"            @@$$##$$####$@*****&&&&*****@$####$$##$$@@          ",
"              @@$$$$$$$$$@&***&====&***&@$$$$$$$$$@@            ",
"                @@@$$$$$$@&&**=    =**&&@$$$$$$@@@              ",
"                   @@@@@@ =&&&=    =&&&= @@@@@@                 ",
"                          =---=    =---=                        ",
"                           ===      ===                         ",
"                                                                "};
