/* XPM */
static char * witchKitty_rest3_xpm[] = {
"64 64 42 1",
" 	c None",
".	c #170F24",
"+	c #402A64",
"@	c #6A45A5",
"#	c #523A80",
"$	c #281F3F",
"%	c #201532",
"&	c #32254E",
"*	c #3A2F5A",
"=	c #2A1B41",
"-	c #4A3073",
";	c #907680",
">	c #B5A75A",
",	c #D8D380",
"'	c #FAFFA5",
")	c #AEAA5C",
"!	c #625613",
"~	c #786B5A",
"{	c #665B3F",
"]	c #FCFFBE",
"^	c #B0AA74",
"/	c #608A2F",
"(	c #5EBE4B",
"_	c #AEDE90",
":	c #408433",
"<	c #FDFFD6",
"[	c #ACDE78",
"}	c #888764",
"|	c #23233B",
"1	c #3D6162",
"2	c #5E978E",
"3	c #4D7A80",
"4	c #2C4453",
"5	c #686948",
"6	c #334E60",
"7	c #233642",
"8	c #2A4150",
"9	c #1C2B35",
"0	c #8C7E36",
"a	c #3C321C",
"b	c #D9D398",
"c	c #70614E",
"                                                                ",
"                                                                ",
"                                                                ",
"                                                                ",
"                                                                ",
"                                                                ",
"                                                                ",
"                                                                ",
"                                                                ",
"                                                                ",
"                                                                ",
"                                                                ",
"               .+@                           @+.                ",
"               .+@@                         @#$.                ",
"               .$#@@                       @@#$.                ",
"              .%&*#@@@                   @@#**&%.               ",
"              .%&***#@@@               @@@#***&%.               ",
"              .%&****#@@@@@@@@@@@@@@@@@@#*****&%.               ",
"              .%&*****#@#*************#@#*****&%.               ",
"              .%&**&&##*****************##****&%.               ",
"              .%=&&-#*********************&&**&%.               ",
"              .%==-#**********************#-&&=%.               ",
"              .%==-#***********************#-==%.               ",
"               .%-#*******#@@@@@@@@@#******#-=%.                ",
"               ..$******#@;>>>>>>>>>;@#*****#+..                ",
"               .$*****#@;>>>>>>>>>>>>>;@#*****$.                ",
"              .$*****#;>>>>>>>>>>>>>>>>>;#*****$.               ",
"              .$****#;>>>>,'''''''',>>>>>;#****$.               ",
"             .$*****#;>>,'''''''''''',>>>;#*****$.              ",
"            .$******#;>,''')!)''')!)''',>;#******$.             ",
"           .$******~>,''''''''''''''''''',{$******$.            ",
"           %=&****${,']^!/(_]''''']_(/!)'',{$****&=%.           ",
"           ..%=&**${,'']_(::_]''']_::(_<]',{$**&=%..            ",
"             ..%===%{,'']_::(['''[(::_]'',{%===%..              ",
"               ..%==%{,''''''']<]''''''',{%==%..                ",
"                 .....{,'''''')!)'''''',{.....                  ",
"                      ...}'''''''''''}...                       ",
"                       .%%...........%%.                        ",
"                      .%=|12345>54321|=%.                       ",
"                     .%==|13675>57631|==%.                      ",
"                     .%==|7875>>>5787|==%.                      ",
"                    .$**&=|95>,',>59|=&**$.    <<<<<            ",
"                    .$***&%{>,''',>{%&***$.  >,'''']<           ",
"                   .$****${>,''''',>{$****$.!0>>>>>,]           ",
"                   .$***${>,''''''',>{$***$a0>0!  !0>           ",
"                  .$****${,''''''''',{$****${0!    !!           ",
"                  .$****$}'''''''''''}$****$a!                  ",
"                  .$***$}',,''''''',,'}$***$.                   ",
"                 .%&***$}',,']b>b]',,'}$***&%.                  ",
"                 .%&***$}',0)]b>b])0,'}$***&%.                  ",
"                .%=&***$}'')^<^!^<^)''}$***&=%.                 ",
"                .%&****$}'',0^^!^^0,''}$****&%.                 ",
"                =&****${,''',0!!!0,''',{$****&%.                ",
"               .$**&&*${,'''',>>>,'''',{$*&&***$.               ",
"              .$******${,''''''''''''',{$******$.               ",
"             .$&&*****${,''''''''''''',{$*****&&$.              ",
"             .$***&&**${,''''''''''''',{$**&&***$.              ",
"            .%&*******${,''''''''''''',c&*******&%.             ",
"            .$***&&***&%}'''']<<<]''''}%&***&&***$.             ",
"            ==&*&=&***&%}'''',>>>,''''}%&***&=&*&==             ",
"            ..%========%{,'',0!!!0,'',{%========%..             ",
"              ...%=====%{>>>0!   !0>>>{%=====%...               ",
"                 .......!^<<^!   !^<<^!.......                  ",
"                         !!!!     !!!!                          "};
