/* XPM */
static char * curious03_xpm[] = {
"64 64 23 1",
" 	c None",
".	c #000000",
"+	c #171A0F",
"@	c #62784A",
"#	c #4E5332",
"$	c #243117",
"%	c #3D3734",
"&	c #9F8965",
"*	c #BD7247",
"=	c #E6DAAD",
"-	c #80592D",
";	c #AB7B44",
">	c #CD9757",
",	c #796E67",
"'	c #302D21",
")	c #FDFFD6",
"!	c #3A1F1D",
"~	c #B34D5C",
"{	c #8D4953",
"]	c #6B3840",
"^	c #A47556",
"/	c #9C8C81",
"(	c #FFFFFF",
"                                                                ",
"                                                                ",
"                                                                ",
"                                                                ",
"                                                                ",
"                                                                ",
"                                                                ",
"                                                                ",
"                                                                ",
"                 +@                            @+               ",
"                 +@@                          @#+               ",
"                 +#@@                        @@#+               ",
"                +$##@@@                    @@###$+              ",
"                +$####@@@                @@@####$+              ",
"                +$#####@@@@@@@@@@@@@@@@@@@######$+              ",
"                +$######@@##############@@######$+              ",
"                +$###$#@##################@#####$+              ",
"                +$$#$@######################$###$+              ",
"                +$$$@#######################@$#$$+              ",
"                +$$$@########################@$$$+              ",
"                 +$@########@@@@@@@@@@#######@$$+               ",
"                 ++#######@@%%%%&&&%%%@@######@++               ",
"                 +######@@*&&%%&&&&&%%%%@@######+               ",
"                +######@***&&&&&&&&&&%%%%%@######+              ",
"                +#####@***&&=========&%%%%%@#####+              ",
"               +######@--;;>==========,,%%%@######+             ",
"              +#######@**>>;>''====''==,,%&@#######+            ",
"             +#######**>>==================&+#######+           ",
"            +$$#####+-;;;===================&+#####$$+          ",
"             ++$$###+*>>>>*==)======)==&====&+###$$++           ",
"               ++$$$$+-;;;>'''&====&'''====&+$$$$++             ",
"                 ++$$$+*>>======))========&+$$$++               ",
"                   +++++&=======''=======&+++++                 ",
"                        +++============+++                      ",
"                         +$++++++++++++$+                       ",
"                        +$$!~~{!&&!{~~!$$+     ))               ",
"                       +$$$!~{]!&&!]{~!$$$+   )==)              ",
"                       +$$$!]]!&&&&!]]!$$$+   &&==)             ",
"                      +###$$!!&&==&*!!$$###+    ===             ",
"                      +####$+&&====**+$####+   '==&             ",
"                     +#####+&&=====>*-+#####+ '&=&              ",
"                     +####+&&=====>>-**+####+'&&'               ",
"                    +#####+&======;;>>-+#####+&'                ",
"                    +#####+=======>>;;>+#####+'                 ",
"                    +####+==&=======>*>>+####+                  ",
"                   +$####+==&==)&&)==&==+####$+                 ",
"                   +$####+==&'=)&&)='&==+####$+                 ",
"                  +$$####+==='))''))'===+####$$+                ",
"                  +$#####+>==&')'')'&===+#####$+                ",
"                  $#####+-;;==&''''&====&+#####$+               ",
"                 +###$##+*>====&&&&=====&+##$####+              ",
"                +#######+^==============&+#######+              ",
"               +#$######+&==============&+######$#+             ",
"               +####$###+&=========,,===&+###$####+             ",
"              +$########+&=======,,,,===&$########$+            ",
"              +####$####$+=====))//,,===+$####$####+            ",
"              $$##$$####$+=====&&%%,,,==+$####$$##$$            ",
"              ++$$$$$$$$$+&===&''''%,,=&+$$$$$$$$$++            ",
"                +++$$$$$$+&&&&'    '%%&&+$$$$$$+++              ",
"                   ++++++ ')))'    ')))' ++++++                 ",
"                           '''      '''                         ",
"                                                                ",
"                                                                ",
"                                                                "};
