/* XPM */
static char * fireSpiritHit000_xpm[] = {
"50 50 7 1",
" 	c None",
".	c #000000",
"+	c #E0394C",
"@	c #FF9554",
"#	c #FFE18D",
"$	c #FFFFFF",
"%	c #E46D3A",
"                                                  ",
"                   +++++                          ",
"                  +@@@@@+   +++                   ",
"                   +@@@@@+ +@@@++                 ",
"                    +@@@@@+ +@@@@+                ",
"            ++    ++@@##@@@++@@@@@+               ",
"          ++@@+ ++@@@@###@@@+@@@@@@+              ",
"         +@@@@++@@@@@@####@@@@#@@@@+              ",
"        +@@@@+@@@@@##@#####@@@##@@@@+             ",
"       +@@@@++@@@#######$###@@###@@@+             ",
"      +@@@#@@@@#########$$##@#####@@@+            ",
"     +@@@##@@@###$$$####$$##@#####@@@@++          ",
"     +@@####@@#$$$$####$$$$#####$##@@@@@+  ++     ",
"     +@@####@@#$$$$####$$$$#####$##@@@@@+ +@@+    ",
"    +@@@######$$$$####$$$$$####$$$##@#@@@+@@@@+   ",
"    +@@###$###$$$##$$$$$$$$$###$$$#####@@@@@@@+   ",
"   +@@@##$$###$$$$$$$$$$$$$$##$$$$#####@@@@@@+    ",
"   +@@@##$$$##$$$$$$$$$$$$$$#$$$$$###$##@@@++     ",
"   +@@@##$$$$#$$$$$$$$$%$$$$$$$$$$###$##@@@+      ",
"   +@@@##$$$$$$$$%%$$$%%%$$$$$$$$$##$$$##@@@+     ",
"   +@@@##$$$$$$$%%%%$$%%%$$$$$$$$$$$$$$##@@@+     ",
"   +@@@##$$$$$$$%%%%$$%%%$$$$$$$$$$$$$$##@@@+     ",
"   +@@####$$$$$$%%%%$$%$%$$$$$$$$$$$$$$##@@@+     ",
"  +@@#####$$$$$$%$$%$$%$%$$$$$$$$$$$$$####@@+     ",
"  +@@##$##$$$$$$%$$%$$%%%$$$$%%$$$$$$######@@+    ",
"  +@@##$$##$$$$$$%%$$$$%$$%%%%%%$$$$$$$$####@@+   ",
"  +@@##$$$$$$$$$$$$$$$$$$%$$$%%%$$$$$$$$$####@@+  ",
"   +@@##$$$$$$$$$#$$$$$$$%$$$%%$$$$$$$$$$$####@@+ ",
"    +@@##$$$$$$$##$$$#$$$$%%%$$$$$$$$$$$$$$###@@+ ",
"    +@@##$$$$$$####$###$$$$$$$$$$$$$$$$$$####@@+  ",
"    +@@##$$$$$##########$#$$$$$$$$$$$$$####@@@+   ",
"     +@@##$$$$#############$$$$$$$$$$$###@@@@+    ",
"      +@@##$$$#$$###########$$$$$$$$$##@@@@++     ",
"       +@@##$$$$$###$#######$$$$$$$$$#@@@++       ",
"       +@@##$$$$$##$$$###$###$$$$$$$$#@@@+        ",
"      +@@@##$$$$$##$$$###$###$$$$$$$$#@@@+        ",
"      +@@@@##$$$$#$$$$##$$###$$$$$$$$###@@+       ",
"      +@@@@@##$$$$$$$$#$$$$$#$$$$$$$$$###@@+      ",
"       +@@+@@#$$$$$$$$$$$$$$$$$$$$$$$$$$##@@+     ",
"        ++ +@@##$$$$$$$$$$$$$$$$$$$$$$###@@+      ",
"            +@#####$$$$$$$$$$$####$$$###@@+       ",
"             +@@######$$$$$###########@@@+        ",
"             +@@@@@###########@@@@###@@@+         ",
"              ++@@@@@@#####@@@@@@@@@@@++          ",
"                +++@@@@@@@@@@@++++@@@+            ",
"                   +++@@@@@+++    +++             ",
"                      +++++                       ",
"                                                  ",
"                                                  ",
"                                                  "};
