/* XPM */
static char * tree_xpm[] = {
"128 128 16 1",
" 	c None",
".	c #1B1A1A",
"+	c #1D1E16",
"@	c #1D2015",
"#	c #20260F",
"$	c #20270F",
"%	c #263825",
"&	c #2F471D",
"*	c #345228",
"=	c #675331",
"-	c #82693D",
";	c #BB7C2D",
">	c #799056",
",	c #C4BE74",
"'	c #DCBE5B",
")	c #FFFFFF",
"                                                                                                                                ",
"                                                                                                                                ",
"                                                                                                                                ",
"                                                                                                                                ",
"                                                                                                                                ",
"                                                                                                                                ",
"                                                                                                                                ",
"                                                                                                                                ",
"                                                                                                                                ",
"                                                                                                                                ",
"                                                                                                                                ",
"                                                                                                                                ",
"                                                                                                                                ",
"                                                                                                                                ",
"                                                                                                                                ",
"                                                                                                                                ",
"                                                                                                                                ",
"                                                                                                                                ",
"                                                                                                                                ",
"                                                                                                                                ",
"                                                                                                                                ",
"                                                             *=                                                                 ",
"                                                          ->>>,>#    #     --=>>-*%                                             ",
"                                                         .>,>>,,>=>=>>+=-=>,,,,>>>-&$%#                                         ",
"                                                        &>,>>=>,=*,,,>==*-,,,,=>,,,,=,>$%%                                      ",
"                                                      $$$&*>>**=>>>>,*%&$=,,>==*,,,>=,>=,>                                      ",
"                                                     $->***>,&->>,,>,-#$--%**>,>=*=>=>>,,>$                                     ",
"                                                     =,>*>>,,&>,,,,,>>$*,,>=*=>>>***>>>>>%  =>-                                 ",
"                                              $$$$ $#&=*>,,,-*>,,*>,,,>*>>=>>*>>,>*>>>*>>*%%,,-                                 ",
"                                             =>>>>*##@*=***,,>**,****==*>-&>>***,,>>>**>>***,>$                                 ",
"                                            *>>*,>$**.>,**&,,&**&**=>>,>-*=>***==***&&>>>*&>>*%                                 ",
"                                          &&*=*>,>#>>==>=>>,>**->>&,,,,>****>>->>***@@>,,>&===%@$                               ",
"                                         %->*=>,,%$,,-@%,,>=,>*>,,>,,,,-****,,,,,*%$@@=-,>@%***$                                ",
"                                         *>>*->*&%>,&$@%,>*&,,>*=,,-,,>=>,,=,>>,-*==*********$@                                 ",
"                                     $%%*%**>>-**=,,*#$$@@->,,-*=>>=%=,,>>-&%&*>,>,,>-%%%*@&&%=*-==-%                           ",
"                                    $*>>=-->,,,**>,>*#$$@@->>-&**&*$#=,>>>%$>#&*>=,,,,->>&%@%@,-,,,,>=                          ",
"                                    %=>=>,>&-,,=%==*$@@@%%$@$$&,,>%$*&=*,>$,,>@***==>,,,>***>&>=->->>>=                         ",
"                              &**  $>>=>,,>****%***%$#@=,,-+$&*,,>#*,,**&&#,,,%&*&+>**>,>-*>>==%>$$$%=*                         ",
"                             *>>-$ $-=&=>,>*&&&$*>=&$#.,,,>@*>,,>>&&>,-**+%*=>=+++*>>>***==>=,>&+#@@##@@                        ",
"                           $$&==>=&$@$=>>>=&#$$$&=*$##@->>-&%=>>-**->,->>.@%%.+@@+*==*%%>>>*=,>*&@@@##@@                        ",
"                           @$#&>,,>*$@**>-*$=>.#$&&&*&@+&>,=%=>>**&>>>-*,>$@@@@@@@@@@@@$>>*%*>,=$@$$$%%@@                       ",
"                         **&@%=,,>**$@&>>-%$->.@@#&*,=&*=>,>>*>>*>=**>*,,,,=$***@@@@@@$===&@$*&$&&&****$@@                      ",
"                   =&==&=>>>&=*,>%>&+$%==@#-,,*$@+*=,>=>>>>>-*>>->=&$#+>,,-#*=&@+@@@@%*>,,>%@+@$>>*>>>>*@@                      ",
"                  %=*==*,>>**=*-->>>=###@@@-,>=&%.->,,,>*&=>-*%%==*$$$##>>,=%%>>>.@@@$%*>>=*&%+$>>*=>>>*#++*-=%&@               ",
"                  $*%%>,,,=%*>>****>>#$$@@#>>&%**=%>>=>=,,,-***$###$#@#&**=*$$>,,.###*=$$%****%$>>*%=>-*****>>**&@              ",
"                  &***>,,*%&>>=****%$#@###@>>+%$*>=*>%-=,,,=**%$$#@@@@+=$@@**%&&*$@$@=>&@%*$*&+*%&$$*>=*>>=**-&$@@@             ",
"                 *=*->*=*&%$&&*&$%%$#@+%@@#>$&>=&>*%-->=,>&**&%$$#%$#@.,-@#&&#%&&*&*%=>*#@+@+@+*==*#$&*>>=&$*==%@@#@            ",
"                &>>*#%*>>*>-&#%$$$$$@@%-&%#*$&>>**&>>>,->$%%%#$#$&&$$#%>>#%%@##+$*****=%@@@@@+=*>>>&$%*==&$&*>>>=#@             ",
"                *>=*$$&*=>>=*#$$$$$@@@&>>$##$$*=*>,,,>>*$$$$$$$&*>=*$&**&$>,,>.&**%%*&@@@@##@@-*>>>*$$$*>>*$%=>>>##@            ",
"                 &*$$$$&$%**$$####@$$@->>+#$*>-,,*&,,&***&&&$$&*>-&*=>=*$#>,,=$*******%@@@$#&>>>>>=$$**>>>=+.@$$$$@             ",
"                  +##$$#@#####@@@++**&=>=@%*>=>,>&$&*>>>>=>>*****=>--=$###=,,>***=**&&*==*#@%*&--*&@.%*>>**@..+@$@              ",
"                     @@@@+@@@@@@%-*%**$>-=&--*--***&*>>>>**=*$&**>,=&%%&&$->>>***>>*+%=>>*@@>-$%*&@%&&*==&%$++@@@               ",
"                    @@@@&>=@@@@$*>=#$=>**&$>>&$&*=>&*****=>**%->=,,=**%$%**%****&*******&++>>-+#&****&$$$$#@@##@@@              ",
"                   $$@#@&>>&$$->>>*&*>>&$*****%&*>>***%$*>>*>>>>=,>>**&******&$$*****&&$@$$>>@@*>>***&+..@@$$$$$$#              ",
"                  +**%.@@*>&*&>-*==>*-*@=>=&*>=@*>*&&#$$***=>>**$*>**>=*>>*&*%#&&&*-*%+%%**&#$@>>=&@++...@$==#$==#@             ",
"             $=-$ @*%*-%@&*$%%*=$*>>*.#$>>&@>>=&>=$##$#$*&*==*=>&%%$%=**=*&$%#$$&#%**+@%%%%#$&&=>$.+@+.++%&>=$=>>##@@           ",
"            *>>=*%%$$**%&-&$$$$@$***>=#$&%+>>>=>>>*$$#&**$%******#@#@@$*%$@@$*%@$$@$$++.@@@@$**%>@+@##@@$*-=*%*>*&#$#@          ",
"           $>-*>>****>>*>***%**$$$$*>>=$$$@>%==>>*%$$%**>>=**=>*$@#$@@#>>-+@&>=@@#@@@%*@$*&$%**$$@+&$#&**%*$$&#****$##          ",
"       %&==&**=>&=>>*>*&*>>*==*%$#%&&*>&%$$.@*****%$$#%*>=>>>>>*&#@$==&=-=+@*>>=@@@@@=>=%**$&*&$@%*>&%&**&*&%*#&&&&@@@@         ",
"      &**==>>=****=&*>=&>>=*>>**$%*&&&&=>=#=@$**&*$@$&%%*&*=&=**&+@$>>&+...&**==$##@#=>>%&*$#%$=&*>>**&=*&&&%=*##@@##+.+        ",
"      $>>-->>*********&%******->******%>**#>>%**@@@@*&@@$%**$$&*>=+@&&@@#..**$$#$#@##%*&$$$$@@#>*****&=>>$$$*-%$@@#@@+..        ",
"      #>>*****%*>-***&$***$*%=>***&$$*%$$$#%>=@@@@@@*&@@@%>>$@+>>=+@@@@#+.@$$%%$$$###$##$#@$&**%&$$#@$=>%@@$***&$##@@@++        ",
"      #%*>>**%$->=*&===*>=&&&$%&#$&&%##$$$@@##@@@@@####@@#=-@@@++++++#%%%#*==*%%*#*=*#@@$%$=>-*@@#@@$*%####$**>>$@.+@+..        ",
"       %*&&**&***=**>>>>**&$-=$$->***&%$@####@@#@@@@@$#@@@@@#@@@#@...#&***>>>>&*%&>>>#@&&*%>>$&$@$%&$*%@@%$@%%*=$+...+          ",
"        $$$*$&&$%****=>>>-**>*$$>>>>>**$&>=@@@@##*>>%#@@@@#&$$@&*&@..@&***>>>%$****>>&***&&****$@%&&#&%@$&%@##@#@..++.          ",
"        $%*%$%%*=>>=%*>>>*************%@$=>&@%%$$=>>>#@@$***$$@&*&@@@%**&#&**#$****%$%**&#&**%*$$&%@@$#$$&&&$####..+..          ",
"       %*>>*%#*>>>>>$*--*=>>&****&%$&%@@%&%@$&#%**>-$#@#&*&$#@@@+@@@@=>-%#%*&*==**%#%%%&$$#&*&#@@$$@#+.@@$%@@@#%%@@@...         ",
"       &>>>**#*==*=-=$&&*>>*$****>>*###$%%$&&*&*>=&#@@#$*&%@@@@@@@@##=>-%##%&=>-*>*&***&$%%$%%#@@@@@@+...@@@.@#**%$#@+.         ",
"       $>****@#$*************&**>>**>=#$&&&**&%*>>*$#$$$$$$@%@$@@@&*$&**&%%$%***>>=%***%$%*$#@@@##+++++..@@..+@**@+##+...       ",
"        %***@@#$$***$%**>-*>>%&$$$&>>>*&%***$#->>>>*%**$$$$#@##@@&**&%**%**%$$&$%***$$$$***$#@###@....@@$$$+.+$$@.+#@#+..       ",
"         %%@#%%$$&**==****=>-*=%#$&-=*>-%**$##->-+-**%*&$$%%&=&@$=>*#$**&&*&%#*=$%&$$%&*->-&%$%@@+...@@@**%#+@##%$...@#@        ",
"          ##*>>&%$%->=*->=&%*>>*&&&%$*>&$&&$-=*=>=*&**>>$&&%*>=@@&=%@#*&&$%&*%->$@@@$$%&===*%&&$#@...@@@&*%@@@@%&&$..+@         ",
"        %****>=**&#&*****%$#$*&**&$$>>>*$&$&*&$%>-$>*&->***>>&%@@@@@$$@@%&#$*$-*@@@@$*%&&&$$$%&$#@++++@#$$$@@%**&&$+.@@         ",
"       *>=>*>-*>>>*%$$#$$$$$$$$##$&*>-***$$$$$$$&=>*&*>>*#=>>##$$#@@*&$@@@@$$#@@@##&**&&$$$@@@..@@$$$@@@.+#@#%**&$$@@$@         ",
"      @=*==*&&*>>>>*=*#$###%**=&%&&&&#%&&&*$%%$$&%##%#=%#$###$##$@@@&*&$@@&&%##@@@#$&#&&%@####+.@@&**%$@+..@$@..@%@@@$$@@       ",
"     >>*>>>*$*>>*==>>>$$&&&&>>>>**%#####&&$&*&#$%##&*&&&$@#@@#@@#@@@#%%$$%***%#@@@#@@$%%$@@@@@..@@%**&%@@...@@+..###@&%+@@      ",
"   $*>->>****=>=*%->**%&******>>&*&$*>=*>>=*****>=#***&$#+###@@#@@@++@#$$%***&##@@@+#...@+..@@+##@#$$$%&@+@#@###.@&&$&%..@@     ",
") &>>*->>=>=>>****&**&$$*******&*=>>>>>>>>>&$$&>>=#$***&@+#@@$#@@@@#$#$$$**%$$$$##@....@@+...@@##@$@$@%$$#...+@##@&&$$#+++@     ",
"  =>>=***>*->->>&**$$%$$#*>>=****&%*>>*-**>==**=&###$%+%%%#@@@@@@&=%&#$#&****&$%@+#+%%%%%%@..@@##%&$*#@##@%@..#$#+%*%%$@@@+     ",
"  &*>>***&&***=&$&&$&&#$$&=>>>>***>******=&>=*>-&#=-$&&&**&$###$&>>*#$@%*%&**&*&$###******&%##@@@@+.%#%&#%*$@$$$#@@%.@$@#@..    ",
"  $***->>&&>>-*$**%$%$@@@#&*=>->>>>**>=>>>=>>%***=>>**&$****$**$$**$@+=>*%*%$%*$$$$$****&**%$##@@+...%*%@%**@@$$@$$@........@   ",
"  #*>*>>**>*>>=**&%>>$@@@@&***>>>***>>-**%&*%$$&&*>**$#@@@#$****$$&$@.==***%$%%$****%&#&&&%$@@#......@@$$%**@$$@@@#+..+..@@..   ",
"   $*=>*&##$-=%*$&>>*&$@@@#&**-&&=*=>>>>==***@####$&&##@%==**>***&&$#+&>>=*&*%#*****&@.%+$##@%%@.+.@@#$@@###$##$+@#%%%@+.+@...  ",
"    %**$&%###$*%$**&*&$$@@@#%##$>>*&**=>>>%*%%#@@$%$$%@@%->*&=*&%%+@@@$==**&%%#***&&%@..+$@#$&&$#+%&@@#..+$##@+@.@@**%$..@#...  ",
"   $>>=**$&****>>*%>>=#@+@@@@@#$&*->*****&#*&$@&&#@&**%$#=>&$%*$@@#$>-%$$$$*&$$$*%&&&#+..@@#$&%##+$&&@@#..%&&+...++$@+@..@@...  ",
"   $>-*>>%**%*>>>&$>>*%@@$@@@@@#$=>**>=$$$#&&$$$*&@**$$*$$%****$##$$>>=$$$&**&#&*>=&&#@+@.+@##$$@@#&&%$$&.%&&+..+#@+..@.@+...   ",
"    $&>>-**&$*=>*&&&&*%$%%#@@@++#$&&->*#%%*%@%**>-#&&%***%*&#&&##@#$*>=&*&$&&#@@+.=%..+$..+@##@%&##&&#&&%.&&++..#++.+$#@+...    ",
"    $&*=**&$&&$%%%%$#$#&*&#@@%&==##$=*#=-*>>$#%&=>*$#$&*%$%$#=>&@@#&*****&$##$$#@**@..%&%&&$#+@#$++%$%%+.+$%...++.@@@@@+..      ",
"     &***&$$%**$$$$$>=#$*$@@@%**=>=$*&->>*>>*#@@$**$$$$$@$$$**>&##&******&%$$@@$>>=@.+&&&@@$$@.@....@$+...@....+.....++...      ",
"      $$$$$$=>=***&*>-$#$#$@$*>**>>**#=>*=>**%++@@&**$$$$&*>***$#@#$**->>*%*&$@#*>=$@#%&$+..#@..++..@$@.@$@..##@+.......        ",
"         #$$-=&=>=*=>=$@@@#*=*=&*$@**%%**=**&%+++@%***&*&=>*%%$#@@#%->***%&&$*%@@$&&%$##$#+%%$@.$%#+@@@@@#@@....+....           ",
"         #$$$&$**&&$%$####@>>=>**&%*>=***&&---=+@@@%%%$%**=***&$&-**->***&*&$%$@@@+&%@%&$#%**##%&&###..++++#@+....              ",
"         @#$***$#$$$@@#$#@@>>$***%->=>>>>&$=';;=#@@@@@@@$$$$%****>>*****$&*%$#&$@@%%.$&&$#$$$@@**&@#@..#+.+@+...                ",
"         @$$$***$$#$@@##@$=**$$$%=>>**>>*&@$=;'';=&+@@@++@#$$$&$$=>*****$$$*$#&*$$+..%%..@@@+..&&#@@+.@#.......                 ",
"        @$*&$%&$%#@##@@@$*==**&&*>>>==>>*%#&%&-''';-==...@@#$####@%&$*&*&&&&=*$&&%@+++...%&@...+@@+@@@@@#$@....                 ",
"        @$*&$$#$%$@@#@@  =>=&$=-&**==%%%*-->*%&==;;;;;...@@@#++@@###$%$%@@@=>*%+.+#%$@...%&@..+@+..+@@@##+...                   ",
"         @$$##$$$$##$#@   *$$=>>*&&*$#@$*=>>**%@@===---';@@@@@.+#$#&$#@@@##&&@+..@%&&%##$%%+@@@@#....++....                     ",
"          #$$#&&$#@@#@@    @$*****$&@@@#$****%*&@@@@%===--@@+..@##@&&$$@$$$$+...@+.&&.@$&%+.$#@@@........                       ",
"           ##$##$$#@@@@     @##=>>%##@@@@%***@+##@@@@%&%=-==&+@#..+@&&&%$##$%$$%$@..@...+...@@#@@.......                        ",
"            @@@@@##@@@@@   @$##===%##@@#@@%%%#@@@@@@@@@@&=-'-&+#..+$%%%%$++@&&&&$#...++.......+......                           ",
"             @@@@@@@  @   @#@@$@@$$$#@##.+@@@@@@@@+.@@@@@=-;';*@###$@#@@@..#&$$$@@....    ..........%                           ",
"              @ @@        @#@@$####@@@@@.+@@@++@@@..@@@@@@=--;-&@#$+..+@@@.##@++.+...     ...    .  %                           ",
"                           @###++..++++@@@@+@..+@+..++++++%=--;-@@@#+..@@@.........                                             ",
"                             @....+...+@@@+.+++@@+........%%==-'-.+..+@@@.........                                              ",
"                                      @@@+.+@@@@..... ....%%===----%+..+......  ...                                             ",
"                                         .. @+..   @    ...=---==-;&+........    .                                              ",
"                                             ..          ..--;;=;;-&.......                                                     ",
"                                                          %--;;=---*..                                                          ",
"                                                          %-;';--;;=.                                                           ",
"                                                          ;;';-'-;;*                                                            ",
"                                                         =;'';'-';;=                                                            ",
"                                                         =;;--;;;'-=                                                            ",
"                                                         &;;;-;--'-*                                                            ",
"                                                     *%%-;-;';---';=%                                                           ",
"                                                   ===*=;;-''----'';=*===                                                       ",
"                                                    %%%-;-;;;=&-;'''-%%%                                                        ",
"                                                     *%--;''-=%--'';-=%%                                                        ",
"                                                    =;-%*;'--=%=-;'-;;=%%%                                                      ",
"                                                 ;-''--&=;;---&%-;';-;=%%%%                                                     ",
"                                              =-;;;--=&=-;-=;--&=-;';;;-%%%%%                                                   ",
"                                                  ***%=-;===-;==%--;;=;--                                                       ",
"                                                     =;;==-=-==*%=;-;-=                                                         ",
"                                                    -;;==;;;%*&===-;-;=                                                         ",
"                                                  ;;--== ';-=*=-;*--;;-*                                                        ",
"                                                  ;-*   -'-=-  *-;%;;;;-%                                                       ",
"                                                 ;-*   -;;-*     - -*--;-&                                                      ",
"                                                -;=   -';-            --;-*                                                     ",
"                                                                         ;-                                                     "};
