/* XPM */
static char * sleepy07_xpm[] = {
"64 64 25 1",
" 	c None",
".	c #000000",
"+	c #62784A",
"@	c #171A0F",
"#	c #4E5332",
"$	c #243117",
"%	c #73A8A0",
"&	c #3D3734",
"*	c #9F8965",
"=	c #BD7247",
"-	c #E6DAAD",
";	c #302D21",
">	c #80592D",
",	c #AB7B44",
"'	c #CD9757",
")	c #796E67",
"!	c #E2B179",
"~	c #FDFFD6",
"{	c #3A1F1D",
"]	c #6B3840",
"^	c #B34D5C",
"/	c #8D4953",
"(	c #A47556",
"_	c #9C8C81",
":	c #FFFFFF",
"                                                                ",
"                                                                ",
"                                                                ",
"                                                                ",
"                                                                ",
"                   +                          +                 ",
"                  @++                        ++@                ",
"                  @#++                      ++#@                ",
"                 @###++                    ++###@               ",
"                 @###+++                  +++###@               ",
"                 @####+++                +++####@               ",
"                @$#####+++              +++#####$@              ",
"                @$#####++++++++++++++++++++#####$@              ",
"                @$######++++++++++++++++++######$@              ",
"                @$######++##############++######$@              ",
"                @$###$#+##################+#####$@              ",
"                @$$#$+######################$###$@    %         ",
"                @$$$+#######################+$#$$@   % %        ",
"                @$$$+########################+$$$@    %         ",
"                 @$+########++++++++++#######+$$@               ",
"                 @@#######++&&&&***&&&++######+@@        %      ",
"                 @######++***&&*****&&&&++######@    %  % %     ",
"                @######+==***********&&&&&+######@       %      ",
"                @#####+==***-;;----;;*&&&&&+#####@              ",
"               @######+>>,,'----------))&&&+######@             ",
"              @#######+=='','----------))&*+#######@            ",
"             @#######==''='-------------*--*@#######@           ",
"            @$$#####@>,,,!;;;*------*;;;~---*@#####$$@          ",
"             @@$$###@=''''!------------~----*@###$$@@           ",
"               @@$$$$@>,,,'!----~~---------*@$$$$@@             ",
"                 @@$$$@=''------;;--------*@$$$@@               ",
"                   @@@@@*----------------*@@@@@                 ",
"                        @@@------------@@@                      ",
"                           @@@@@@@@@@@@                         ",
"                          @$${]]{{]]{$$@                        ",
"                         @$${^/]{{]/^{$$@       -~              ",
"                        @$${^^/{**{/^^{$$@     ---~             ",
"                       @$$${^/]{**{]/^{$$$@     --~             ",
"                       @$$${]]{****{]]{$$$@     *--             ",
"                      @###$${{**--*={{$$###@    *--             ",
"                      @####$@**----==@$####@    *-*             ",
"                     @#####@**-----'=>@#####@  ;--              ",
"                     @####@**-----''>==@####@;;**;              ",
"                    @#####@*------,,''>@#####@**;               ",
"                    @#####@-------'',,'@#####@*;                ",
"                    @####@--*-------'=''@####@;                 ",
"                   @$####@--*--~**~--*--@####$@                 ",
"                   @$####@--*;-~**~-;*--@####$@                 ",
"                  @$$####@---;~~;;~~;---@####$$@                ",
"                 @$$#####@'--*;~;;~;*---@#####$$@               ",
"                @$######@>,,--*;;;;*----*@#####$$@              ",
"               @#####$##@='----****-----*@##$####$@             ",
"             @@#########@(--------------*@#########@@           ",
"           @@####$######@*--------------*@######$####@@         ",
"          @#########$###@*---------))---*@###$#########@        ",
"         @#####$########@*-------))))---*$########$#####@       ",
"          @@##$####$####$@-----~~__))---@$####$####$##@@        ",
"            @@$$##$$####$@-----**&&)))--@$####$$##$$@@          ",
"              @@$$$$$$$$$@*---*;;;;&))-*@$$$$$$$$$@@            ",
"                @@@$$$$$$@**--;    ;))**@$$$$$$@@@              ",
"                   @@@@@@ ;***;    ;&&*; @@@@@@                 ",
"                          ;~~~;    ;~~~;                        ",
"                           ;;;      ;;;                         ",
"                                                                "};
