/* XPM */
static char * 01_xpm[] = {
"128 128 34 1",
" 	c None",
".	c #000000",
"+	c #000000",
"@	c #110F1A",
"#	c #081013",
"$	c #1B1A2C",
"%	c #2D2A3F",
"&	c #2E2D3F",
"*	c #302F3F",
"=	c #403F3B",
"-	c #4E443B",
";	c #302F41",
">	c #312F44",
",	c #413F42",
"'	c #404040",
")	c #66555F",
"!	c #775651",
"~	c #79595C",
"{	c #7B5D5D",
"]	c #785E5D",
"^	c #7A5E5D",
"/	c #7E5C5D",
"(	c #52486B",
"_	c #665660",
":	c #705B64",
"<	c #7A5D61",
"[	c #B61818",
"}	c #865960",
"|	c #B1A096",
"1	c #DC8F87",
"2	c #D58F8F",
"3	c #CF8F90",
"4	c #D2A8AA",
"5	c #F7B7B5",
"                                                                                                                                ",
"                                                                                                                                ",
"                                                                                                                                ",
"                                                                                                                                ",
"                                                                                                                                ",
"                                                                                                                                ",
"                                                                                                                                ",
"                                                                                                                                ",
"                                                                                                                                ",
"                                                                                                                                ",
"                                                                                                                                ",
"                                                                                                                                ",
"                                                                                                                                ",
"                                                                                                                                ",
"                                                                                                                                ",
"                                                                                                                                ",
"                                                                                                                                ",
"                                                                                                                                ",
"                                                                                                                                ",
"                                                                                                                                ",
"                                                                                                                                ",
"                                                                                                                                ",
"                                                                                                                                ",
"                                                                                                                                ",
"                                                                                                                                ",
"                                                                                                                                ",
"                                                                                                                                ",
"                                                                                                                                ",
"                                                                                                                                ",
"                                                                                                                                ",
"                                                                                                                                ",
"                                                                                                                                ",
"                                                                                                                                ",
"                                                                                                                                ",
"                                                                                                                                ",
"                                                                                                                                ",
"                                                                                                                                ",
"                                                                                                                                ",
"                                                                                                                                ",
"                                                                                                                                ",
"                                                                                                                                ",
"                                                                                                                                ",
"                                                                                                                                ",
"                                                                                                                                ",
"                                                                                                                                ",
"                                                                                                                                ",
"                                                                                                                                ",
"                                                                                                                                ",
"                                                                                                                                ",
"                                                                                                                                ",
"                                                                                                                                ",
"                                                                                                                                ",
"                                                                                                                                ",
"                                                                                                                                ",
"                                                                                                                                ",
"                                                                                                                                ",
"                                                                                                                                ",
"                                                                                                                                ",
"                                                                                                                                ",
"                                                                                                                                ",
"                                                                                                                                ",
"                                                                                                                                ",
"                                                                                                                                ",
"                                                                                                                                ",
"                                                                                                                                ",
"                                                                                                                                ",
"                                                                                                                                ",
"                                                                                                                                ",
"                                                                                                                                ",
"                                                                                                                                ",
"                                                                                                                                ",
"                                                                                                                                ",
"                                                                                                                                ",
"                                                                                                                                ",
"                                                                                                                                ",
"                                                                                                                                ",
"                                                                                                                                ",
"                                                                                                                                ",
"                                                                                                                                ",
"                                                                                                                                ",
"                                                                                                                                ",
"                                                                                                                                ",
"                                                                                                                                ",
"                                                                                                                                ",
"                                                                                                                                ",
"                                                                                                                                ",
"                                                                                                                                ",
"                                                                                                                                ",
"                                                                    ++++++++++++++++                                            ",
"                                                                    ++++++++++++++++                                            ",
"                                                                    ++++++++++++++++                                            ",
"                                                                    ++++++++++++++++                                            ",
"                                                            ++++++++;;;;;;;;;;;;;;;;++++++++++++        ::::                    ",
"                                                            ++++++++;;;;;;;;;;;;;;;;++++++++++++        ::::                    ",
"                                                            ++++++++;;;;;;;;;;;;;;;;++++++++++++        ::::                    ",
"                                                            ++++++++;;;;;;;;;;;;;;;;++++++++++++        ::::                    ",
"                                                        ++++%%%%;;;;;;;;;;;;$$$$;;;;;;;;;;;;;;;;++++++++5555++++++++            ",
"                                                        ++++%%%%;;;;;;;;;;;;$$$$;;;;;;;;;;;;;;;;++++++++5555++++++++            ",
"                                                        ++++%%%%;;;;;;;;;;;;$$$$;;;;;;;;;;;;;;;;++++++++5555++++++++            ",
"                                                        ++++%%%%;;;;;;;;;;;;$$$$;;;;;;;;;;;;;;;;++++++++5555++++++++            ",
"                                    ////////////////++++++++;;;;;;;;;;;;;;;;;;;;$$$$$$$$;;;;;;;;;;;;####4444&&&&>>>>++++        ",
"                                    ////////////////++++++++;;;;;;;;;;;;;;;;;;;;$$$$$$$$;;;;;;;;;;;;####4444&&&&>>>>++++        ",
"                                    ////////////////++++++++;;;;;;;;;;;;;;;;;;;;$$$$$$$$;;;;;;;;;;;;####4444&&&&>>>>++++        ",
"                                    ////////////////++++++++;;;;;;;;;;;;;;;;;;;;$$$$$$$$;;;;;;;;;;;;####4444&&&&>>>>++++        ",
"                        }}}}{{{{3333////////////////////$$$$;;;;;;;;;;;;;;;;;;;;;;;;;;;;$$$$;;;;****@@@@@@@@>>>>[[[[>>>>++++    ",
"                        }}}}{{{{3333////////////////////$$$$;;;;;;;;;;;;;;;;;;;;;;;;;;;;$$$$;;;;****@@@@@@@@>>>>[[[[>>>>++++    ",
"                        }}}}{{{{3333////////////////////$$$$;;;;;;;;;;;;;;;;;;;;;;;;;;;;$$$$;;;;****@@@@@@@@>>>>[[[[>>>>++++    ",
"                        }}}}{{{{3333////////////////////$$$$;;;;;;;;;;;;;;;;;;;;;;;;;;;;$$$$;;;;****@@@@@@@@>>>>[[[[>>>>++++    ",
"                {{{{{{{{!!!!                            ++++;;;;;;;;%%%%%%%%$$$$;;;;;;;;%%%%;;;;;;;;@@@@$$$$++++>>>>>>>>>>>>++++",
"                {{{{{{{{!!!!                            ++++;;;;;;;;%%%%%%%%$$$$;;;;;;;;%%%%;;;;;;;;@@@@$$$$++++>>>>>>>>>>>>++++",
"                {{{{{]{{!!!!                            ++++;;;;;;;;%%%%%%%%$$$$;;;;;;;;%%%%;;;;;;;;@@@@$$$$++++>>>>>>>>>>>>++++",
"                {{{{]]{{!!!!                            ++++;;;;;;;;%%%%%%%%$$$$;;;;;;;;%%%%;;;;;;;;@@@@$$$$++++>>>>>>>>>>>>++++",
"        ))))~~~~((((                                    ''''====$$$$%%%%%%%%%%%%$$$$2222%%%%%%%%%%%%||||,,,,    ++++++++++++    ",
"        ))))~~~~((((                                    ''''====$$$$%%%%%%%%%%%%$$$$2222%%%%%%%%%%%%||||,,,,    ++++++++++++    ",
"        ))))~~~~((((                                    ''''====$$$$%%%%%%%%%%%%$$$$2222%%%%%%%%%%%%||||,,,,    ++++++++++++    ",
"        ))))~~~~((((                                    ''''====$$$$%%%%%%%%%%%%$$$$2222%%%%%%%%%%%%||||,,,,    ++++++++++++    ",
"    ____<<<<                                            1111$$$$    $$$$%%%%%%%%        %%%%%%%%%%%%----                        ",
"    ____<<<<                                            1111$$$$    $$$$%%%%%%%%        %%%%%%%%%%%%----                        ",
"    ____<<<<                                            1111$$$$    $$$$%%%%%%%%        %%%%%%%%%%%%----                        ",
"    ____<<<<                                            1111$$$$    $$$$%%%%%%%%        %%%%%%%%%%%%----                        ",
"                                                                        $$$$11111111        2222                                ",
"                                                                        $$$$11111111        2222                                ",
"                                                                        $$$$11111111        2222                                ",
"                                                                        $$$$11111111        2222                                ",
"                                                                                                                                ",
"                                                                                                                                ",
"                                                                                                                                ",
"                                                                                                                                "};
