/* XPM */
static char * 02_xpm[] = {
"128 128 26 1",
" 	c None",
".	c #000000",
"+	c #000000",
"@	c #110F1A",
"#	c #081013",
"$	c #1B1A2C",
"%	c #2D2A3F",
"&	c #302F3F",
"*	c #403F3B",
"=	c #4E443B",
"-	c #302F41",
";	c #312F44",
">	c #413F42",
",	c #404040",
"'	c #7B5D5D",
")	c #7E5C5D",
"!	c #52486B",
"~	c #705B64",
"{	c #B61818",
"]	c #865960",
"^	c #B1A096",
"/	c #DC8F87",
"(	c #D58F8F",
"_	c #CF8F90",
":	c #D2A8AA",
"<	c #F7B7B5",
"                                                                                                                                ",
"                                                                                                                                ",
"                                                                                                                                ",
"                                                                                                                                ",
"                                                                                                                                ",
"                                                                                                                                ",
"                                                                                                                                ",
"                                                                                                                                ",
"                                                                                                                                ",
"                                                                                                                                ",
"                                                                                                                                ",
"                                                                                                                                ",
"                                                                                                                                ",
"                                                                                                                                ",
"                                                                                                                                ",
"                                                                                                                                ",
"                                                                                                                                ",
"                                                                                                                                ",
"                                                                                                                                ",
"                                                                                                                                ",
"                                                                                                                                ",
"                                                                                                                                ",
"                                                                                                                                ",
"                                                                                                                                ",
"                                                                                                                                ",
"                                                                                                                                ",
"                                                                                                                                ",
"                                                                                                                                ",
"                                                                                                                                ",
"                                                                                                                                ",
"                                                                                                                                ",
"                                                                                                                                ",
"                                                                                                                                ",
"                                                                                                                                ",
"                                                                                                                                ",
"                                                                                                                                ",
"                                                                                                                                ",
"                                                                                                                                ",
"                                                                                                                                ",
"                                                                                                                                ",
"                                                                                                                                ",
"                                                                                                                                ",
"                                                                                                                                ",
"                                                                                                                                ",
"                                                                                                                                ",
"                                                                                                                                ",
"                                                                                                                                ",
"                                                                                                                                ",
"                                                                                                                                ",
"                                                                                                                                ",
"                                                                                                                                ",
"                                                                                                                                ",
"                                                                                                                                ",
"                                                                                                                                ",
"                                                                                                                                ",
"                                                                                                                                ",
"                                                                                                                                ",
"                                                                                                                                ",
"                                                                                                                                ",
"                                                                                                                                ",
"                                                                                                                                ",
"                                                                                                                                ",
"                                                                                                                                ",
"                                                                                                                                ",
"                                                                                                                                ",
"                                                                                                                                ",
"                                                                                                                                ",
"                                                                                                                                ",
"                                                                                                                                ",
"                                                                                                                                ",
"                                                                                                                                ",
"                                                                                                                                ",
"                                                                                                                                ",
"                                                                                                                                ",
"                                                                                                                                ",
"                                                                                                                                ",
"                                                                                                                                ",
"                                                                                                                                ",
"                                                                                                                                ",
"                                                                                                                                ",
"                                                                                                                                ",
"                                                                                                                                ",
"                                                                                                                                ",
"                                                                                                                                ",
"                                                                                                                                ",
"                                                                                                                                ",
"                                                                                                                                ",
"                                                                                                                                ",
"                                                                            ++++++++++++                                        ",
"                                                                            ++++++++++++                                        ",
"                                                                            ++++++++++++                                        ",
"                                                                            ++++++++++++                                        ",
"                                                                ++++++++++++------------++++++++                                ",
"                                                                ++++++++++++------------++++++++                                ",
"                                                                ++++++++++++------------++++++++                                ",
"                                                                ++++++++++++------------++++++++                                ",
"                                                            ++++--------------------------------++++    ~~~~                    ",
"                                                            ++++--------------------------------++++    ~~~~                    ",
"                                                            ++++--------------------------------++++    ~~~~                    ",
"                                                            ++++--------------------------------++++    ~~~~                    ",
"                                                ))))))))++++----------------$$$$--------------------####<<<<++++++++            ",
"                                                ))))))))++++----------------$$$$--------------------####<<<<++++++++            ",
"                                                ))))))))++++----------------$$$$--------------------####<<<<++++++++            ",
"                                                ))))))))++++----------------$$$$--------------------####<<<<++++++++            ",
"        '''''''']]]]!!!!]]]]        ))))))))))))))))++++$$$$--------------------$$$$$$$$--------&&&&@@@@::::;;;;;;;;++++        ",
"        '''''''']]]]!!!!]]]]        ))))))))))))))))++++$$$$--------------------$$$$$$$$--------&&&&@@@@::::;;;;;;;;++++        ",
"        '''''''']]]]!!!!]]]]        ))))))))))))))))++++$$$$--------------------$$$$$$$$--------&&&&@@@@::::;;;;;;;;++++        ",
"        '''''''']]]]!!!!]]]]        ))))))))))))))))++++$$$$--------------------$$$$$$$$--------&&&&@@@@::::;;;;;;;;++++        ",
"    !!!!                ]]]]''''____))))                ++++--------%%%%%%%%$$$$--------$$$$--------@@@@@@@@++++{{{{;;;;++++    ",
"    !!!!                ]]]]''''____))))                ++++--------%%%%%%%%$$$$--------$$$$--------@@@@@@@@++++{{{{;;;;++++    ",
"    !!!!                ]]]]''''____))))                ++++--------%%%%%%%%$$$$--------$$$$--------@@@@@@@@++++{{{{;;;;++++    ",
"    !!!!                ]]]]''''____))))                ++++--------%%%%%%%%$$$$--------$$$$--------@@@@@@@@++++{{{{;;;;++++    ",
"                                                        ,,,,****$$$$%%%%%%%%%%%%$$$$((((%%%%%%%%%%%%^^^^$$$$++++;;;;;;;;;;;;++++",
"                                                        ,,,,****$$$$%%%%%%%%%%%%$$$$((((%%%%%%%%%%%%^^^^$$$$++++;;;;;;;;;;;;++++",
"                                                        ,,,,****$$$$%%%%%%%%%%%%$$$$((((%%%%%%%%%%%%^^^^$$$$++++;;;;;;;;;;;;++++",
"                                                        ,,,,****$$$$%%%%%%%%%%%%$$$$((((%%%%%%%%%%%%^^^^$$$$++++;;;;;;;;;;;;++++",
"                                                        ////$$$$    $$$$%%%%%%%%        %%%%%%%%%%%%====>>>>    ++++++++++++    ",
"                                                        ////$$$$    $$$$%%%%%%%%        %%%%%%%%%%%%====>>>>    ++++++++++++    ",
"                                                        ////$$$$    $$$$%%%%%%%%        %%%%%%%%%%%%====>>>>    ++++++++++++    ",
"                                                        ////$$$$    $$$$%%%%%%%%        %%%%%%%%%%%%====>>>>    ++++++++++++    ",
"                                                                        $$$$////////        ((((                                ",
"                                                                        $$$$////////        ((((                                ",
"                                                                        $$$$////////        ((((                                ",
"                                                                        $$$$////////        ((((                                ",
"                                                                                                                                ",
"                                                                                                                                ",
"                                                                                                                                ",
"                                                                                                                                "};
