/* XPM */
static char * fireSpirit000_xpm[] = {
"50 50 8 1",
" 	c None",
".	c #000000",
"+	c #141B1B",
"@	c #E0394C",
"#	c #E46D3A",
"$	c #EF914F",
"%	c #E3F1F5",
"&	c #FFFFFF",
"                                                  ",
"                                                  ",
"                                                  ",
"                                                  ",
"                  ++                              ",
"                 +@@+                             ",
"                 +@@+                             ",
"                  ++  ++                          ",
"                     +@@+                         ",
"                    +@@@@+     +                  ",
"                   +@@@@@@+   +@+                 ",
"                  +@@@@#@@+  +@@+                 ",
"            +     +@@@##@@+ +@@@+                 ",
"           +@+   +@@@@##@@@+@@#@+                 ",
"          +@@+   +@@@####@@+@##@@+                ",
"          +@@@+  +@@######@+@###@@+               ",
"         +@@@@@+++@###$$##@@#####@@+              ",
"         +@@#@@@@+@##$$$$####$$###@@+             ",
"         +@@###@@@###$$$$$##$$$$###@@+            ",
"         +@@####@@##$$$$$$#$$$#$$##@@@+           ",
"         +@@########$$$$$$$$$#@#$$##@@+  +        ",
"          +@#######$$$$$$$$$$#@#$$$##@+ +@+       ",
"           +@##$###$$$$$$$$$$#@#$$$##@@+@@+       ",
"           +@##$$#$$$$$$$$$$$##$$$$##@@+@@@+      ",
"           +@##$$$$$$$$$$$$$$$$$$$$##@+@#@@+      ",
"          +@@##$$$$$$$$$+$$$$$$$$$###@@##@@+      ",
"         +@@###$$$$$$$$+++$$$$$$$$#######@@+      ",
"        +@@@##$$$$$$$$$+%+$$$$$$$$###$$$#@+       ",
"       +@@@###$$$$+$$$$+%+$$$$+$$$#$$$$#@@+       ",
"       +@@@##$$$$+++$$$+%+$$$+++$$$$$$##@+        ",
"       +@@@##$$$$++++$$+++$$++++$$$$$##@+         ",
"      +@@@##$$$$$+++++$$+$$+++++$$$$$##@@+        ",
"      +@@@##$$$$$$++%%+$$$+%%++$$$$$##@@@@+       ",
"      +@@@##$$$$$$$+%%+$$$+%%+$$$$$$##@@@@+       ",
"      +@@@##$$$$$$$$+++$$$+++$$$$$$$$##@@@+       ",
"      +@@@##$$#$$$$$$$$$$$$$$$$$$#$$$##@@@+       ",
"       +@@###$$#$$###$$$$$$###$$#$$$###@@+        ",
"       +@@@##$$$##$$$######$$$##$$$$##@@@+        ",
"        +@@###$$$$$$$$$$$$$$$$$$$$$##@@@+         ",
"         +@@###$$$$$$$$$$$$$$$$$$$##@@@@+         ",
"          +@@#####$$$$$$$$$$$$$####@@@@+          ",
"           +@@######$$$$$$$$######@@@@+           ",
"            +@@@################@@@@++            ",
"             ++@@@@###########@@@@++              ",
"               ++@@@@@@@@@@@@@@@++                ",
"                 +++@@@@@@@@@+++                  ",
"                    +++++++++                     ",
"                                                  ",
"                                                  ",
"                                                  "};
