/* XPM */
static char * cracked_stone_bricks_01_xpm[] = {
"128 128 66 1",
" 	c #777070",
".	c #827E7A",
"+	c #807B78",
"@	c #7F7B78",
"#	c #7D7775",
"$	c #7A7473",
"%	c #746D6D",
"&	c #736C6C",
"*	c #716A6A",
"=	c #6E6767",
"-	c #6B6464",
";	c #676060",
">	c #605B5B",
",	c #635D5D",
"'	c #565050",
")	c #5B5555",
"!	c #7E7976",
"~	c #787171",
"{	c #7B7574",
"]	c #696262",
"^	c #686262",
"/	c #676161",
"(	c #666060",
"_	c #797372",
":	c #7F7A77",
"<	c #817D79",
"[	c #575151",
"}	c #5C5656",
"|	c #605A5A",
"1	c #625C5C",
"2	c #706969",
"3	c #696363",
"4	c #5F5959",
"5	c #615C5C",
"6	c #595353",
"7	c #6A6464",
"8	c #716B6B",
"9	c #6D6867",
"0	c #645E5E",
"a	c #5E5858",
"b	c #75716E",
"c	c #6F6868",
"d	c #6D6666",
"e	c #766F6F",
"f	c #787271",
"g	c #6A6363",
"h	c #7C7674",
"i	c #7D7876",
"j	c #585252",
"k	c #655F5F",
"l	c #6E6868",
"m	c #6C6666",
"n	c #5D5757",
"o	c #625D5D",
"p	c #676262",
"q	c #756F6E",
"r	c #6D6767",
"s	c #645F5F",
"t	c #635E5E",
"u	c #666261",
"v	c #76706F",
"w	c #665F5F",
"x	c #686161",
"y	c #615B5B",
"z	c #5A5454",
"A	c #726B6B",
"                                                                                                                                ",
"                                                                                                                                ",
"  ..............................+@@@@@@@@@@@@@##############$$$$$   %%%%&************============--------------------------;;   ",
"  ..............................................................>   ------------------------------------------------------,';   ",
"  .............................................................>>   -----------------------------------------------------)'';   ",
"  ....................!                          ~$$$$$$$$$${#>>>   ---]]^//////////////////(((((((((((((((((((((((((((((''';   ",
"  ....................                                        >>>   ---((((((((((((((((((((((((((((((((((((((((((((((((((''';   ",
"  @..................$                                        >>>   ---((((((((((((((((((((((((((((((((((((((((((((((((((''';   ",
"  @..........@@##$_                                           >>>   ---((((((((((((((((((((((((((((((((((((((((((((((((((''';   ",
"  @.........                                                  >>>   ---((((((((((((((((((((((((((((((((((((((((((((((((((''';   ",
"  :........                                                   >>>   ---((((((((((((((((((((((((((((((((((((((((((((((((((''';   ",
"  #.......                                                    >>>   ---((((((((((((((((((((((((((((((((((((((((((((((((((''';   ",
"  #......                                                     >>>   ---((((((((((((((((((((((((((((((((((((((((((((((((((''';   ",
"  #.....                                                      >>>   ---((((((((((((((((((((((((((((((((((((((((((((((((((''';   ",
"  $.....                                                      >>>   ---((((((((((((((((((((((((((((((((((((((((((((((((((''';   ",
"  $....<                                                      >>>   ---((((((((((((((((((((((((((((((((((((((((((((((((([''';   ",
"  $....                                                       >>>   ---((((((((((((((((((((((((((((((((((((((((((((((((}'''';   ",
"  $...                                                        >>>   ---((((((((((((((((((((((((((((((((((((((((((((((((''''';   ",
"   ..@                                                        >>>   ---(((((((((((((((((((((((((((((((((((((((((((((((|''''';   ",
"   ..@                                                        >>>   ---((((((((((((((((((((((((((((((((((((((((((((((('''''';   ",
"   ...                                                        >>>   ---((((((((((((((((((((((((((((((((((((((((((((((1'''''';   ",
"   ...                                                        >>>   ---((((((((((((((((((((((((((((((((((((((((((((((''''''';   ",
"   ...                                                   2(>>3>>>   ---((((((((((((((((((((((((((((((((((((((((((((((''''''';   ",
"   ...                                                2>>>>>>>>>>   ---(((((((((((((((((((((((((((((((((((((((((((((4''''''';   ",
"   ...                                                5>>>>>>>>>>   ---(((((((((((((((((((((((((((((((((((((((((((((6''''''';   ",
"   ...                                               7>>>>>>>>>>>   ---((((((((((((((((((((((((((((((((((((((((((((('''''''';   ",
"   ...                                            3>>>>>>>>>>>>>>   ---((((((((((((((((((((((((((((((((((((((((((((('''''''';   ",
"   ...                                       (>>>>>>>>>>>>>>>>>>>   ---((((((((((((((((((((((((((((((((((((((((((((('''''''';   ",
"   ...                                      8>>>>>>>>>>>>>>>>>>>>   ---((((((((((((((((((((((((((((((((((((,'''''''''''''''';   ",
"   ..9>>>>>>>>>>>>>>>>>>>>>>>>>>>>>>>>>>>>>>>>>>>>>>>>>>>>>>>>>>>   --0aaaaaaaaaaaaaaaaaaaaaaaaaaaaaaaaaaaa''''''''''''''''';   ",
"   .9>>>>>>>>>>>>>>>>>>>>>>>>>>>>>>>>>>>>>>>>>>>>>>>>>>>>>>>>>>>(   -a'''''''''''''''''''''''''''''''''''''''''''''''''''''';   ",
"   b>>>>>>>>>>>>>>>>>>>>>>>>>>>>>>>>>>>>>>>>>>>>>>>>>>>>>>>>>>>>(   [''''''''''''''''''''''''''''''''''''''''''''''''''''''';   ",
"                                                                                                               ccccccccccccc&   ",
"                                                                                                                                ",
"                                                                                                                                ",
"   ---------------------d==========**********&%   ~$$$$$$$$$$$$$$$$$$$$$$$$$$$$$$$$$$$$$$$$$$$$$$$$$$$$$$$$$$$$$$$$$$$$$$$$$$   ",
"  e-------------------------------------------'   f.........................................................................>   ",
"  %------------------------------------------''    ........................................................................>>   ",
"  %---((//////////]-----------ggggggggg-----[''    .................................................................@@@@@@>>>   ",
"  %---((((((((((((((----------(((((((((((((('''    ............+                        ................                  >>>   ",
"  &---(((((((((((((((g-------((((((((((((((('''    ...........{                         f..............                   >>>   ",
"  *--g((((((((((((((((-----3(((((((((((((((('''    ..........h                           .............                    >>>   ",
"  *--g((((((((((((((((----(((((((((((((((((('''    ..........                            :............                    >>>   ",
"  *--g((((((((((((((((----(((((((((((((((((('''    ..........                             <...........                    >>>   ",
"  2--](((((((((((((((((--^(((((((((((((((((('''    ..........                              $.........i                    >>>   ",
"  =--](((((((((((((((((/-((((((((((((((((((('''    ..........                                +...<$                       >>>   ",
"  =--]((((((((((((((((((/((((((((((((((((((('''    ..........                                 ~f                          >>>   ",
"  =--^(((((((((((((((((((((((((((((((((((((('''    .........i                                                             >>>   ",
"  d--/(((((((((((((((((((((((((((((((((((((('''    .......$                                                               >>>   ",
"  ---/(((((((((((((((((((((((((((((((((((((('''    ......                                                                 >>>   ",
"  ---/(((((((((((((((((((((((((((((((((((((('''    ...                                                                    >>>e  ",
"  ---((((((((((((((((((((((((((((((((((((((('''    ...                                                                    >>>8  ",
"  ---((((((((((((((((((((((((((((((((((((((('''    ...                                                                    >>>8  ",
"  ---((((((((((((((((((((((((((((((((((((((('''    ...                                                                    >>>8  ",
"  ---((((((((((((((((((((((((((((((((((((((0'''    ...                                                                    >>>8  ",
"  ---(((((((((((((((((((((((((((((((((,j'''''''    ...                                                                    >>>8  ",
"  ---((((((((((((((((((((((((((((1,((k'''''''''    ...                                                                    >>>l  ",
"  ---(((((((((((((((((((((()'''''''''''''''''''    ...                                                                    >>>m  ",
"  ---(((((((((((((((((((((j''''''''''''''''''''    ...                                            %8888882mmmmmm7(((((((>>>>>m  ",
"  --gaaaaaaaaaaaaaaaaaaaan'''''''''''''''''''''    ...mm(((((((>>>>>>>>>>>>>>>>>>>>>>>>>>>>>>>>>>>>>>>>>>>>>>>>>>>>>>>>>>>>>>m  ",
"  --'''''''''''''''''''''''''''''''''''''''''''    ..o>>>>>>>>>>>>>>>>>>>>>>>>>>>>>>>>>>>>>>>>>>>>>>>>>>>>>>>>>>>>>>>>>>>>>>>m  ",
"  -''''''''''''''''''''''''''''''''''''''''''''    .o>>>>>>>>>>>>>>>>>>>>>>>>>>>>>>>>>>>>>>>>>>>>>>>>>>>>>>>>>>>>>>>>>>>>>>>>m  ",
"  '''''''''''''''''''''''''''''''''''''''''''''    o>>>>>(((((((((((pmmmmmmmmmmm88888888888                                     ",
"                                                                                                                                ",
"                                                                                                                                ",
"                                                                                                                                ",
"  .............................................@@@@@@@@@@@@@!########q  $######!@@@@@@@@@@.................................bm   ",
"  ..................................................................b(  #.................................................9>m   ",
"  ...@@............................................................b>(  #................................................o>>m   ",
"  ...                                                         $$$$$>>(  #........................#                       >>>m   ",
"  ...$                                                             >>(  #......................._                        >>>m   ",
"  @..$                                                             >>(  #......................                          >>>m   ",
"  @..$                                                             >>(  #.......        ......+                          >>>m   ",
"  @..$                                                           e>>>(  #......!        .......                          >>>m   ",
"  !..{                                                           >>>>(  #......         @.....~                          >>>m   ",
"  #..#                                                           >>>>(  #.....#          $..:                            >>>m   ",
"  #..#                                                           >>>>(  #.....#            ~                             >>>m   ",
"  #..#                                                           >>>>m  #.....#                                          >>>m   ",
"  $..#                                                           >>>>m  #.....#                                          >>>m   ",
"  $..@                                                           >>>>m  #.....#                                          >>>m   ",
"  $..@                                                           >>>>m  #....{                                          8>>>m   ",
"  $..@                                 3                        l>>>>m  #..i                                           5>>>>m   ",
"   ..@                                 >l                       >>>>>m  #..#                                         m>>>>>>m   ",
"   ..@                                8>>l                     l>>>>>m  #..#                                        >>>>>>>>m   ",
"   ...                                7>>>&                    >>>>>>m  #..#                                       r>>>>>>>>m   ",
"   ...                                >>>>>                    s>>>>>m  #..#                                       >>>>>>>>>m   ",
"   ...                                >>>>>2                    3>>>>m  #..#                                      8>>>>>>>>>m   ",
"   ...                                >>>>>(                     l>>>m  #..#                                      >>>>>>>>>>m   ",
"   ...                                >>>>>>                      p>>8  #..#                                      >>>>>>>>>>m   ",
"   ...                                p>>>>>>te                   (>>8  #..#                                         %mt>>>>m   ",
"   ...                                s>>>>>>>>>8                 (>>8  #..#                                            8>>>m   ",
"   ...                               s>>>>>>>>>>>                 (>>8  #..#                                            8>>>m   ",
"   ...                              3>>>>>>>>>>>>m                (>>8  #..#                                            8>>>m   ",
"   ..u>>>>>>>>>>>>>>>>>>>>>>>>>>>>>>>>>>>>>>>>>>>>>>>>>>>>>>>>>>>>>>>8  #..p((((((((((((((((((((((((((((((((((((((((((((s>>>m   ",
"   .u>>>>>>>>>>>>>>>>>>>>>>>>>>>>>>>>>>>>>>>>>>>>>>>>>>>>>>>>>>>>>>>>8  #.>>>>>>>>>>>>>>>>>>>>>>>>>>>>>>>>>>>>>>>>>>>>>>>>>>m   ",
"   9>>>>>>>>>>>>>>>>>>>>>>>>>>>>>>>>>>>>>>>>>>>>>>>>>>>>>>>>>>>>>>>>>8  v>>>>>>>>>>>>>>>>>>>>>>>>>>>>>>>>>>>>>>>>>>>>>>>>>>>m   ",
"                                                                                                                                ",
"                                                                                                                                ",
"                                                                                                                                ",
"   ----------------------------------------d=========w   =============================================**********************2   ",
"  e-------------------------------------------------aa   ------------------------------------------------------------------g'   ",
"  %------------------------------------------------a'a   -----------------------------------------------------------------g''   ",
"  %-------------------------------/x]]]]]]]]]]]]]gy''a   --------------------------------------------gggggggggggggg]]]]]]]'''   ",
"  %-------------------------------((((((((((((((((a''a   ----((((((((((((((((((((((((((((((((((((((((((((((((((((((((((((('''   ",
"  &------------------------------^((((((((((((((((a''a   ----((((((((((((((((((((((((((((((((((((((((((((((((((((((((((((('''   ",
"  *--------------------------(((((((((((((((((((((a''a   ----((((((((((((((((((((((((((((((((((((((((((((((((((((((((((((('''   ",
"  *-----------------------g(((((((((((((((((((((((a''a   ----((((((((((((((((((((((((((((((((((((((((((((((((((((((((((((('''   ",
"  *--------//////7--------((((((((((((((((((((((((a''a   ----((((((((((((((((((((((((((((((((((((((((((((((((((((((((((((('''   ",
"  2-------/((((((((------(((((((((((((((((((((((((a''a   ----((((((((((((((((((((((((((((((((((((((((((((((((((((((((((((('''   ",
"  =-------((((((((((----](((((((((((((((((((((((((a''a   ----((((((((((((((((((((((((((((((((((((((((((((((((((((((((((((('''   ",
"  =------/((((((((((g---((((((((((((((((((((((((((a''a   ----(((((((((((((((((((((((((((((((((((((((((((((((((((((((((((k''''   ",
"  =--3/((((((((((((((---((((((((((((((((((((((((((a''a   =---((((((((((((((((((((((((((((((((((((((((((((((((((((((((((('''''   ",
"  d--/(((((((((((((((--7((((((((((((((((((((((((((a''a   =---((((((((((((((((((((((((((((((((((((((((((((((((((((((((((('''''   ",
"  ---/(((((((((((((((3-(((((((((((((((((((((((((((a''a   =---((((((((((((((((((((((((((((((((((((((((((((((((((((((((((('''''   ",
"  ---/(((((((((((((((x((((((((((((((((((((((((((((a''a   =---((((((((((((((((((((((((((((((((((('((((((((((((((((((((((('''''&  ",
"  ---(((((((((((((((((((((((((((((((((((((((((((((a''a   =---((((((((((((((((((((((((((((((((((('[((((((((((((((((((((a''''''c  ",
"  ---(((((((((((((((((((((((((((((((((((((((((((((a''a   =---(((((((((((((((((((((((((((((((((((''6(((((((((((((((((a''''''''c  ",
"  ---(((((((((((((((((((((((((((((((((((((((((((((a''a   =---(((((((((((((((((((((((((((((((((((''6(((((((((((((((k''''''''''c  ",
"  ---(((((((((((((((((((((((((((((((((((((((''''''a''a   c---(((((((((((((((((((((((((((((((((((''0((((((((((((((('''''''''''c  ",
"  ---((((((((((((((((((((((((((((((((((((((k'''''''''a   *---((((((((((((((((((((((((((((((((()'''(((((((((((((((''''''''''''c  ",
"  ---((((((((((((((((((((((((((((((((((((((j'''''''''a   *---((((((((((((((((((((((((((((((n''''''((((((((((((((z'''''''''''']  ",
"  ---((((((((((((((((((((((((((((((0j''''''''''''''''a   *---(((((((((((((((((((((((((((((('''''''[(((((((((((((''''''''''''';  ",
"  ---((((((((((((((((((((((((((((y'''''''''''''''''''a   *---(((((((((((((((((((((((((((((j''''''''naaaaaazzzzzj''''''''''''';  ",
"  --;zzzzzzzzzzzzzzzzzzzzzzzzzzj'''''''''''''''''''''a   *--z'''''''''''''''''''''''''''''''''''''''''''''''''''''''''''''''';  ",
"  -g'''''''''''''''''''''''''''''''''''''''''''''''''a   *-a''''''''''''''''''''''''''''''''''''''''''''''''''''''''''''''''';  ",
"  g''''''''''''''''''''''''''''''''''''''''''''''''''a   *a'''''''''''''''''''''''''''''''''''''''''''''''''''''''''''''''''';  ",
"  aaaaaaaaaaaaaaaaaaaaaaaaaaaaaaaaaaaaaaaaaaaaaaaaaaa0   Aa0;;;;;;;;;;ccccccccccc                                               ",
"                                                                                                                                "};
