/* XPM */
static char * tile013_xpm[] = {
"64 64 23 1",
" 	c None",
".	c #000000",
"+	c #62784A",
"@	c #171A0F",
"#	c #4E5332",
"$	c #243117",
"%	c #9F8965",
"&	c #E6DAAD",
"*	c #FDFFD6",
"=	c #302D21",
"-	c #BD7247",
";	c #CD9757",
">	c #AB7B44",
",	c #84AE56",
"'	c #364922",
")	c #E2B179",
"!	c #80592D",
"~	c #BC8D57",
"{	c #3A1F1D",
"]	c #6B3840",
"^	c #8D4953",
"/	c #B34D5C",
"(	c #FFFFFF",
"                                                                ",
"                                                                ",
"                                                                ",
"                                                                ",
"                                                                ",
"                                                                ",
"                       +   +                                    ",
"                       ++  ++                                   ",
"                       @++@#++                                  ",
"                      @##++$#++                                 ",
"                      @###++$#++                                ",
"                      @####+++$++                               ",
"                     @$#####++++$+                              ",
"                     @$#######+++++++                           ",
"                     @$$######$$+++++++                         ",
"                     @$$$####$########+++                       ",
"                     @$$$$$$############++                      ",
"                     @$$$$$##############++                     ",
"                     @$$$$##############+++                     ",
"                     @$$##############++%%                      ",
"                      @#############++%%&&%                     ",
"                     @#############+%&&&&*%                     ",
"                     @#############+&&&%==&                     ",
"                    @$############+-;&&&&&&                     ",
"                    @$############+>;;&*%&&                     ",
"                   @$############$+;>==,'&&                     ",
"                  @#############$+-;;),,'&&                     ",
"                 @$$###########$+!>>~~~,'&&&                    ",
"                @$$$$#########$+--;;;;))&&*==                   ",
"                 @$$$$#########$@!!>>&&&&&&&%                   ",
"                  @$$$$$########$@--&&&&&&&&%                   ",
"                   @@$$$$########$@%%&&&&&&%                    ",
"                     @@$$$$$######$@%%&&&&%                     ",
"                       @@$$$$$$$$$$$@@%%%                       ",
"                         @@@@@@@@@@@@@@                         ",
"                            @$$$$$$@{]]                         ",
"                           @$$$$$$$@{]^/                        ",
"                           @$$$$$$$@={]^/                       ",
"                          @$$$$$#$$@=={]^                       ",
"                          @$$$#$##$@==={{                       ",
"                         @$$###$##$@=%&%                        ",
"                         @#$##$###$@%%&%                        ",
"                        @#####$###@=%&*%                        ",
"                        @#########@=&&**                        ",
"                       @######$###@=%&&**                       ",
"          ***          @##########@==%&&*                       ",
"         *&&&*        @###########@==%%&**                      ",
"         &&&&&       @############@=&=%&&%                      ",
"          &&&&*     @#############@%&&=%&%                      ",
"            %&&    @##############@%&&%=&=                      ",
"            %%&   @###############@-;&%==                       ",
"            %%%  @####$###########@!>>%                         ",
"            ==% @##########$##$###@-;&%                         ",
"             ===@####$#############@&&%                         ",
"             ===@$##$#####$###$####@&&%                         ",
"              ===@$$######$###$####@&&%                         ",
"                  @$$####$###$#####@&&%                         ",
"                   @@$$$$$$##$#####$%%=                         ",
"                     @@@@@$$$$$###$$%===                        ",
"                         =@@@@$$$$$$===%&&                      ",
"                          ====@@@@@@ =%%&&                      ",
"                           %%%=       %%%                       ",
"                                                                ",
"                                                                "};
