/* XPM */
static char * wall_border_xpm[] = {
"128 128 57 1",
" 	c #636363",
".	c #616161",
"+	c #565656",
"@	c #666666",
"#	c #7A7A7A",
"$	c #757575",
"%	c #707070",
"&	c #575757",
"*	c #797979",
"=	c #6C6C6C",
"-	c #626262",
";	c #585858",
">	c #4C4C4C",
",	c #808080",
"'	c #848484",
")	c #747474",
"!	c #717171",
"~	c #767676",
"{	c #6F6F6F",
"]	c #5F5F5F",
"^	c #4F4F4F",
"/	c #7B7B7B",
"(	c #555555",
"_	c #777777",
":	c #656565",
"<	c #6D6D6D",
"[	c #5A5A5A",
"}	c #737373",
"|	c #5B5B5B",
"1	c #7E7E7E",
"2	c #646464",
"3	c #4D4D4D",
"4	c #696969",
"5	c #686868",
"6	c #818181",
"7	c #595959",
"8	c #787878",
"9	c #5E5E5E",
"0	c #525252",
"a	c #6A6A6A",
"b	c #5D5D5D",
"c	c #838383",
"d	c #7D7D7D",
"e	c #676767",
"f	c #6E6E6E",
"g	c #505050",
"h	c #7C7C7C",
"i	c #7F7F7F",
"j	c #606060",
"k	c #828282",
"l	c #6B6B6B",
"m	c #515151",
"n	c #545454",
"o	c #727272",
"p	c #535353",
"q	c #5C5C5C",
"r	c #4E4E4E",
"      .++++@###########$%       .&+++++@####*=   -;++++>##,'''##########################   )##! +++++++>>##)%%%                 ",
"        ++++;##########~%    .;++++.~####{     ]+++++++^ #/'''##########################)   ###{-+++++(>_##%%%:                 ",
"         +++++#########*< -[+++@~####}@      |+++++++++(>##'''1##########################2  2###=]++++3(##!%%%                  ",
"          +++++#########4]5~######<       -;++++++++++++>4#6'''###########################   !###=7+++>##*%%%@                  ",
"          |++++################=        .+++++++++++++++3>#/'''###########################{   ####=&+^{##%%%%                   ",
"         -++++8#############<         9+++++++++++++++++0>)#''',###########################   4####<+;##8%%%a                   ",
"         ++++a############}         b++++++++++++++++++++>>#,'''###########################)   #########%%%%                    ",
"        ++++]#####/c'd####4       b++++++++++++++++++++++>>##'''############################   e#######~%%%f                    ",
"       ++++b#####6''''####4     9++++++++++++++++++++++++g>;#c''6###########################%   #######%%%%:                    ",
"      ++++b####/''''''1###{    &+++++++++++++++++++++++++(>>#h'''###########################e   ######_%%%%                     ",
"     ++++b####,''''cic'###)    +++++++++++++++++++++++++++>>4#'''/#########################e   e######%%%%%                     ",
"    ++++2####c''''h###//###   j+++++++++++++++++++++++++++3>>#i''c########################2   2#######}%%%%                     ",
"   ++++a###h''''k######)###   j+++++++++++++++++++++++++++0>>_#'''######################)    a#########%%%%2                    ",
"  ++++!###6''''h#######}###   j++++++++++++++++++++++++++++>>(#k''d####################@    ~####*~####}%%%l                    ",
" ++++8###''''c#########*_##=  j++++++++++++++++++++++++++++>>>##'''##################)    @####}a b<####%%%%                    ",
"++++###/''''1###########e##~  j++++++++++++++++++++++++++++3>>=#c''#################2    _##*!%    +<###)%%%:                   ",
"++;###i''''############# ###  j++++++++++++++++++++++++++++0>>>#/''i##############{    {##8%%4     j+8###%%%f                  &",
"+2###c'''k############## *##   +++++++++++++++++++++++++++++>>>##c''############_    4##~%%f        ++###_%%%                 ++",
"{###''''h############### a##a  +++++++++++++++++++++++++++++>>> ##''###########@   4##~%%%@         -+;###%%%a               +++",
"##h'''c#################  ##_  +++++++++++++++++++++++++++++>>>>##k'6########{   4##~%%%<            ;+a##*%%%              ++;#",
"#1''',##################  ###  +++++++++++++++++++++++++++++^>>>###''######_   a##8%%%%:              ++###}%%@           -++@##",
"k'''/###################4 !##  +++++++++++++++++++++++++++++m>>> ##d'h####2  {##*%%%%=                7++###%%%          .++~###",
"''c#####################a 2##% +++++++++++++++++++++++++++++^>>>>###kc##= @_###!%%%%2                  ++a##8%%2        9+;####,",
"'1######################{  ### ++++++++++++++++++++++++++(g>>>>>>####6!e}####}%%%%=                    |++###}%f       b+@####c'",
"/#######################{  ### ;+++++++++++++++++++++(m>>>>>>>>>>##########_%%%%%:                      ++|###%%      |+8####'''",
"########################}  %##%7++++++++++++++++nm3>>>>>>>>>>>>>>#########!%%%%f                        b++~##*%<    ;b#####''k#",
"########################}  @###b++++++++++nm^>>>>>>>>>>>>>>>>b!#########8%%%%%@                          +++###8%   &}####/''d##",
"########################{   ###.+++(0^>>>>>>>>>>>>>>>>^b=##############~%%%%%                            |++<###~= 2#####h''####",
"########################@   ####(>>>>>>>>>>>>(; {_#####################%%%%{                              +++###########h'k#####",
"##################_}=@      ##########################8$}!%%%%%<a:  }##}%%%<                              ;++<#########h'd######",
"########*){ae               ###################8$o%%%%%%%{a@        |###%%%%2                             .+++########/'########",
"4@                       4}##############*$!%%%%%%%%fa2              +##$%%%%                              +++########6######)!{",
"              24={)_#################8}%%%%%%%%%l:                   9b##%%%%a                            9+++########a         ",
"###################################*%%%%%%%%f:                        +{##%%%%2                           +++{##################",
"#############))))!{{{{{{{{{{{})#####%%%%%%:                           j+##~%%%%                          b+++###################",
"                      jb[;+++++g####%%%%%                              ++##o%%%<                         +++8################)!{",
"             .9|;++++++++++++++( ###$%%%%                              j+@##%%%%:                       ;++.#####<#####}        ",
"      jb7+++++++++++++++++++++++>####%%%%                               ++8##%%%%                      j+++####*{ .####}        ",
" b;+++++++++++++++++++++++++++++0^###}%%%                               ]++##*%%%{                     +++8###*%   <####        ",
"+++++++++++++++++++++++++++++++++>{###%%%l                               ++5##~%%%a                   ;++a###*%a   b8###}     [+",
"+++++++++++++++++++++++++++++++++3>###!%%%                               |++###)%%%2                 .++|####%%     +####     ++",
"+++++++++++++++++++++++++++++++++(>j###%%%2                               ++|###o%%%                 +++####%%2     .|###*    7+",
"++++++++++++++++++++++++++++++++++>>###!%%f                               +++####!%%f               ;++8###!%l       &a###a    +",
"++++++++++++++++++++++++++++++++++0>0###%%%                               +++@####%%%4             ]++{###}%%         +####    &",
"+++++++++++++++++++++++++++++++++++>>_##}%%5                             ++++{#####%%%2            ++2###~%%:         |+###_   -",
"&++++++++++++++++++++++++++++++++++3>^###%%%                           -++++<#######%%%           ++;###*%%f           +.###4   ",
"-++++++++++++++++++++++++++++++++++(>>)##)%%2                         b++++8###_####*%%f         |++####%%%            j+~###   ",
" &++++++++++++++++++++++++++++++++++>>>###%%f                        ;+++b###$l |~###*%%5       .++####%%%e             ++###*  ",
" -++++++++++++++++++++++++++++++++++g>>{##$%%                      .++++!##_%:   ;}###*%%2      ++8###o%%{              -+b###a ",
"  &++++++++++++++++++++++++++++++++++>>>###%%a                    ;+++;##*%%      +}###*%%     ;+8###~%%%                7+}### ",
"   ++++++++++++++++++++++++++++++++++>>>4##8%%                  .++++{##o%<        +}####%f   b+}###*%%%l                 ++####",
"e  ;+++++++++++++++++++++++++++++++++0>>>###!%e                ;+++|##~%%@         -+}####%5 -+8####%%%%                  b+b###",
"#   ++++++++++++++++++++++++++++++++++>>> ###%%              j++++}#*%%%2           9+8####}2+#####!%%%@                   ++!##",
"#*  [+++++++++++++++++++++++++++++++++3>>>###)%:            &+++2##)%%{              7+8##########~%%%{                    .++##",
"##{  +++++++++++++++++++++++++++++++++p>>> ###%{          b+++;##*%%%l                &+##########%%%%                      &+|#",
"###2 b+++++++++++++++++++++++++++++++++>>>>###*%        -++++~##}%%%@                  ++########%%%%<                       ++}",
"8###  +++++++++++++++++++++++++++++++++>>>>4###}<      [+++<##*%%%%2                   -++######$%%%%                        7++",
"+###~ 9++++++++++++++++++++++++++++++++m>>>>####%    j+++5###)%%%%                      j+;#####%%%%%                         ++",
"+5###= ++++++++++++++++++++++++++++++++(>>>>{####l  &++<####%%%%f                        |+|####8%%%%                         b+",
"++####2.++++++++++++++++++++++++++++++++>>>>>####*q+]8####8%%%%f                          &+b####o%%%f                         +",
"++;#### &++++++++++++++++++++++++++++++r>>>>>############}%%%%l                            ++2####%%%%:                        j",
"+++{###~-+++++++++++++++++++++++++++n3>>>>>>>{##########!%%%%l                             -++<###*%%%%                         ",
"9+++####<;++++++++++++++++++++++n^>>>>>>>>>()##########!%%%%f                               ]++}###~%%%a                        ",
" +++b####2++++++++++++++++(0^>>>>>>>>>>;{##############%%%%%                                 [++8###o%%%                        ",
" j+++~####|++++++++(pg3>>>>>>>>>>( !###################8%%%%:                                 &++####%%%%                       ",
"  ++++#####nmg3>>>>>>>>>>>; {###########################$%%%%                                  +++####%%%a                      ",
"  .+++<######{{{{{)###############################o%$####)%%%f                                 .++;###8%%%2                     ",
"   ++++##########################dik'''''ci~#####!%%%%_###)%%%a                                 q++b###)%%%                     ",
"   j+++##################dik''''''''k1#####e####o%%%%%%!###~%%%e                                 &++5###!%%f                    ",
"    +++###########hik''''''''''k1#########@####$%%%f<%%%%~##~%%%:                                 +++}###%%%e                   ",
"   .++|#####/ik'''''''''''k1#############)@###*%%%l    l%%%##8%%%2                                .+++8##*%%%                   ",
"   b++~##1''''''''''''i/################# ####%%%f       5%%~#*%%%                                 |+++###8%%%                  ",
"   +++##/''''''''c1#####################24###!%%%          @%o##%%%                                 ++++###)%%f                 ",
"   ++a##''''''1########################! ###$%%%             @%##%%%                                -+++b###!%%5                ",
"  .++##1'''k########################### {##*%%%@               @8#!%%                                7+++<###%%%2               ",
"  ;+2##'''k###########################  ###%%%=                  a#)%%                                ++++8###%%%:              ",
"  ++##,''c###########################{ )##}%%%                    7#~%%                             -++++++###*%%%4             ",
" .+]##'''###########################* 2##*%%%                      +#*%%                          q++++++++~###*%%%f            ",
" ;+##c''############################  ###%%%@                      j+8#%%                     .7+++++++;a########}%%%2          ",
" +]##''h###########################4 a##}%%<                        &+}#}%                .|++++++|5~#######di1{_#*%%%a         ",
".+##c',###########################~  ##*%%%                          ++}#_%           j7++++|5!#######dk'''1####! *#~%%{        ",
"&]#/'c############################  )##%%%2                          +++8##%     -b&++.<8########h6'''''1########~ <##}%%:      ",
"+##c'############################2 2##)%%4                           ++++###~b.5!#############/c''''',#############  ##*!%=     ",
"a##'h###########################<  ###%%{                           ;+++{#####################'''''/################  )##*%%   .",
"##ck###########################*  {##%%%                           &+++<###########~}%%f: {###'''h###################2 a###8%4 -",
"##'############################   ##_%%:                          ++++}########~%%%%%e    +###''1#####################2 2#####$#",
"#,/###########################2  *##%%=                         .++++8####d###}%%%{2      +###''#######################2  ######",
"#i###########################=  a##}%%                         b+++;####ki#<##$%%a        ;@##''########################   #####",
"# <)########################~   ##*%%                         ;+++2###,'/## ##$%%         b+##''#########################   ####",
"##!    4!##################*   _##%%4                        ++++}##d'c#### ##8%%         j+##''d########################%   ###",
"####_@       a}############   4##_%{                       ]+++;###c'k##### )#8%%          +8#k'1########################)   ###",
"#######}2          4{~###*    ###%%                       ;+++2##i''d###### a##%%          +5#i',########################=  =###",
"   a~#####)@                 _##)%:                     -++++~#/'''/#######  ##%%          +|#h'k########################   ###2",
"       =#####*=             =###%f                     b+++;##,''c#########  ##%%          ++##''########################   ##a ",
"          e_#####)e         ###}%                     &+++a##'''k##########  ##%%          ;+##''#######################!  ~##  ",
";+++7]       a*######)a    ####%2                   .++++##1'''1###########  *#%%          7+##''#######################   ##2  ",
"++++++++;]      <#############}a                   7+++.##c'''h############2 !#!%          b+!#i'd######################  !#_  b",
"++++++++++++[.    2_##########%                  -++++~#/''''/#############4 a#}%          b+5##'c#####################!  ##   +",
"+++++++++++++++&9    !#######_                  7+++|##,''''###############4  #$%          ++5##''/####################  {#*  ;+",
"+++++++++++++++++++|-  !#####<7bbbbjjjjj      9++++{##c''''################<  #8%         b++###1'',###################  ##2 .++",
"++++++++++++++++++++++;. ######{b+++++++++++++++++###''''c#################{  ##%        -++8####/'''/################= {##  +++",
"+++++++++++++++++++++++++;##########!5]+++++++++2###'''''##################{  ##%        ++8#######6''k###############  ##4 9+++",
"+++++++++++++++++++++++++;###)}}})~8###############c''''###################!  ##%       ++8###e_####/'''d############_ !##  ++++",
"++++++++++++++++++++++++( ##%%%%%%%%%%%!)8#########''''/###################)  *#%      &+8##{]++>4####1''c###########@ ##% |++++",
"++++++++++++++++++++++++g{#_%%%%%%%%%%f<<<<<{}#####''''####################)  )#}@    &+###@-++++p> ####k'',######### )##  +++++",
"++++++++++++++++++++++++>##%%%%f2            .b####c''k####################)  {#~@   ;+###  +++++++3> ###/c''h######!2### 7+++++",
"++++++++++++++++++++++++>##%%%%               +@###i''k####################)  a#*4  ;;###  +++++++++n>> ###/''c##### *##= ++++++",
"+++++++++++++++++++++++0>#~%%%l               ++8###''k####################)  4##a ;.###  ;+++++++++++r>>{###/'',##*<### ;++++++",
"+++++++++++++++++++++++30#%%%%                b+;###'''####################)  @##a;!###  q+++++++++++++n>>>_###/k'd4####-+++++++",
"+++++++++++++++++++++++>@#%%%%                 ++~##k''####################}   ##_####  .++++++++++++++++3>>(##########)&+++++++",
"++++++++++++++++++++++(>##%%%a                 +++##/''####################    ######   ++++++++++++++++++g>>>{########{++++++++",
"++++++++++++++++++++++^>#$%%%                  [++8##''##################!    4#####2  &+++++++++++++++++++n>>>[########g+++++++",
"++++++++++++++++++++++>>#!%%%                  .++;##,'h###############)     2#####<  b+++++++++++++++++++++n>>>{########(^+++++",
"+++++++++++++++++++++(>j#%%%f                   +++###',#############!     2_######   +++++++++++++++++++++++>>>##########@>m+++",
"+++++++++++++++++++++g>_#%%%e                   +++2##c'###########=     a#########   +++++++++++++++++++++++>>>###########_>>n+",
"(++++++++++++++++++++>>#*%%%                    b+++##/'########*@    2~###########<  q+++++++++++++++++++++0>>4#####$#######[>>",
">3+++++++++++++++++++>>#~%%%                     +++}##'######}    2}#####d6'd#*2###2  +++++++++++++++++++++>>>#####!  ;<#####_>",
"^>>^++++++++++++++++^>@#}%%<                     +++|##/1###a   e~####dk''i#####{ ###  -++++++++++++++++++++>>b####!a   ]+!#####",
"#=>>>m++++++++++++++>>##%%%@                     ++++###6}  e!####/,'''6#########2 ##*  b++++++++++++++++++g>>####}%      ++~###",
"###0>>>0+++++++++++(>>##%%%                      7+++<#########/k''''d############  ##)  &+++++++++++++++++>>;###_%5       7+|##",
"####)>>>>n+++++++++3>[##%%%                      b++++#######,'''',###############}  ##<  ++++++++++++++++(>>####%%         .++5",
"+<#### >>>>(+++++++>>_##%%f                      &++++#####c''''1##################@ 2##e .+++++++++++++++3>;###%%@           ++",
"++;#####0>>>>(++++g>>###%%5                    b++++++###h''''d#####################  e##2 |++++++++++++++>>###)%%             [",
"|+++5####)>>>>>n++>>b##8%%                   b+++++++8###c''k#######################)  {##  &++++++++++++g>b##*%%:              ",
" .+++;#####4>>>>>>>>###8%%                 [+++++++!#####6''k########################e  ~##  ++++++++++++>>###%%%               ",
"   ++++<#####j>>>>>>###$%%              j+++++++b8#######d'''#########################   ##* .++++++++++0> ##$%%:               ",
"    ;+++;######b>>>)###$%a            [++++++|}######/####'''#########################~   ##_ b+++++++++>>###%%%                ",
"     9++++~######@j####$%2         9++++++b}####/i''i##}##''',#########################e  e##~ &+++++++(>=##!%%:                "};
