/* XPM */
static char * cracked_stone_bricks_xpm[] = {
"128 128 65 1",
" 	c #777070",
".	c #827E7A",
"+	c #807B78",
"@	c #7F7B78",
"#	c #7D7775",
"$	c #7A7473",
"%	c #746D6D",
"&	c #736C6C",
"*	c #716A6A",
"=	c #6E6767",
"-	c #6B6464",
";	c #676060",
">	c #605B5B",
",	c #635D5D",
"'	c #565050",
")	c #5B5555",
"!	c #7E7976",
"~	c #797372",
"{	c #7B7574",
"]	c #696262",
"^	c #686262",
"/	c #676161",
"(	c #666060",
"_	c #787271",
":	c #787171",
"<	c #7F7A77",
"[	c #817D79",
"}	c #575151",
"|	c #5C5656",
"1	c #605A5A",
"2	c #625C5C",
"3	c #5F5959",
"4	c #595353",
"5	c #6C6666",
"6	c #635E5E",
"7	c #645F5F",
"8	c #706969",
"9	c #6D6867",
"0	c #645E5E",
"a	c #5E5858",
"b	c #75716E",
"c	c #6F6868",
"d	c #6D6666",
"e	c #766F6F",
"f	c #6A6363",
"g	c #696363",
"h	c #716B6B",
"i	c #585252",
"j	c #655F5F",
"k	c #6E6868",
"l	c #676262",
"m	c #6A6464",
"n	c #5D5757",
"o	c #625D5D",
"p	c #756F6E",
"q	c #7D7876",
"r	c #615C5C",
"s	c #6D6767",
"t	c #666261",
"u	c #76706F",
"v	c #665F5F",
"w	c #686161",
"x	c #615B5B",
"y	c #5A5454",
"z	c #726B6B",
"                                                                                                                                ",
"                                                                                                                                ",
"  ..............................+@@@@@@@@@@@@@##############$$$$$   %%%%&************============--------------------------;;   ",
"  ..............................................................>   ------------------------------------------------------,';   ",
"  .............................................................>>   -----------------------------------------------------)'';   ",
"  ....................!                    ~..........!$$$$${#>>>   ---]]^//////////////////(((((((((((((((((((((((((((((''';   ",
"  ....................                      ~.........#       >>>   ---((((((((((((((((((((((((((((((((((((((((((((((((((''';   ",
"  @..................$                       ~........_       >>>   ---((((((((((((((((((((((((((((((((((((((((((((((((((''';   ",
"  @..........@@##$~                           :.......        >>>   ---((((((((((((((((((((((((((((((((((((((((((((((((((''';   ",
"  @.........                                   @.....{        >>>   ---((((((((((((((((((((((((((((((((((((((((((((((((((''';   ",
"  <........                                     .....         >>>   ---((((((((((((((((((((((((((((((((((((((((((((((((((''';   ",
"  #.......                                      {...#         >>>   ---((((((((((((((((((((((((((((((((((((((((((((((((((''';   ",
"  #......                                        !..          >>>   ---((((((((((((((((((((((((((((((((((((((((((((((((((''';   ",
"  #.....                                          <@          >>>   ---((((((((((((((((((((((((((((((((((((((((((((((((((''';   ",
"  $.....                                                      >>>   ---((((((((((((((((((((((((((((((((((((((((((((((((((''';   ",
"  $....[                                                      >>>   ---(((((((((((((((((((((((((((((((((((((((((((((((((}''';   ",
"  $....                                                       >>>   ---((((((((((((((((((((((((((((((((((((((((((((((((|'''';   ",
"  $...                                                        >>>   ---((((((((((((((((((((((((((((((((((((((((((((((((''''';   ",
"   ..@                                                        >>>   ---(((((((((((((((((((((((((((((((((((((((((((((((1''''';   ",
"   ..@                                                        >>>   ---((((((((((((((((((((((((((((((((((((((((((((((('''''';   ",
"   ...                                                        >>>   ---((((((((((((((((((((((((((((((((((((((((((((((2'''''';   ",
"   ...                                                        >>>   ---((((((((((((((((((((((((((((((((((((((((((((((''''''';   ",
"   ...                                                        >>>   ---((((((((((((((((((((((((((((((((((((((((((((((''''''';   ",
"   ...                                                        >>>   ---(((((((((((((((((((((((((((((((((((((((((((((3''''''';   ",
"   ...                                                        >>>   ---(((((((((((((((((((((((((((((((((((((((((((((4''''''';   ",
"   ...                                          &56>>((5557>>>>>>   ---((((((((((((((((((((((((((((((((((((((((((((('''''''';   ",
"   ...                                     8(>>>>>>>>>>>>>>>>>>>>   ---((((((((((((((((((((((((((((((((((((((((((((('''''''';   ",
"   ...                                     (>>>>>>>>>>>>>>>>>>>>>   ---((((((((((((((((((((((((((((((((((((((((((((('''''''';   ",
"   ...                                     (>>>>>>>>>>>>>>>>>>>>>   ---((((((((((((((((((((((((((((((((((((,'''''''''''''''';   ",
"   ..9>>>>>>>>>>>>>>>>>>>>>>>>>>>>>>>>>>>>>>>>>>>>>>>>>>>>>>>>>>>   --0aaaaaaaaaaaaaaaaaaaaaaaaaaaaaaaaaaaa''''''''''''''''';   ",
"   .9>>>>>>>>>>>>>>>>>>>>>>>>>>>>>>>>>>>>>>>>>>>>>>>>>>>>>>>>>>>(   -a'''''''''''''''''''''''''''''''''''''''''''''''''''''';   ",
"   b>>>>>>>>>>>>>>>>>>>>>>>>>>>>>>>>>>>>>>>>>>>>>>>>>>>>>>>>>>>>(   }''''''''''''''''''''''''''''''''''''''''''''''''''''''';   ",
"                                                                                                               ccccccccccccc&   ",
"                                                                                                                                ",
"                                                                                                                                ",
"   ---------------------d==========**********&%   :$$$$$$$$$$$$$$$$$$$$$$$$$$$$$$$$$$$$$$$$$$$$$$$$$$$$$$$$$$$$$$$$$$$$$$$$$$   ",
"  e-------------------------------------------'   _.........................................................................>   ",
"  %------------------------------------------''    ........................................................................>>   ",
"  %---((//////////]-----------fffffffff-----}''    .......................................................................>>>   ",
"  %---((((((((((((((----------(((((((((((((('''    ...                                                       !..........< >>>   ",
"  &---(((((((((((((((f-------((((((((((((((('''    ...                                                        .........:  >>>   ",
"  *--f((((((((((((((((-----g(((((((((((((((('''    ...                                                        @.......    >>>   ",
"  *--f((((((((((((((((----(((((((((((((((((('''    ...                                                         .......    >>>   ",
"  *--f((((((((((((((((----(((((((((((((((((('''    ...                                                         [.....+    >>>   ",
"  8--](((((((((((((((((--^(((((((((((((((((('''    ...                                                         _.....~    >>>   ",
"  =--](((((((((((((((((/-((((((((((((((((((('''    ...                                                          #$        >>>   ",
"  =--]((((((((((((((((((/((((((((((((((((((('''    ...                                                                    >>>   ",
"  =--^(((((((((((((((((((((((((((((((((((((('''    ...                                                                    >>>   ",
"  d--/(((((((((((((((((((((((((((((((((((((('''    ...                                                                    >>>   ",
"  ---/(((((((((((((((((((((((((((((((((((((('''    ...                                                                    >>>   ",
"  ---/(((((((((((((((((((((((((((((((((((((('''    ...                                                                    >>>e  ",
"  ---((((((((((((((((((((((((((((((((((((((('''    ...                                                                    >>>h  ",
"  ---((((((((((((((((((((((((((((((((((((((('''    ...                    e                                               >>>h  ",
"  ---((((((((((((((((((((((((((((((((((((((('''    ...                  &>>>>                                             >>>h  ",
"  ---((((((((((((((((((((((((((((((((((((((0'''    ...                 6>>>>>8                                            >>>h  ",
"  ---(((((((((((((((((((((((((((((((((,i'''''''    ...               e>>>>>>>6                                            >>>h  ",
"  ---((((((((((((((((((((((((((((2,((j'''''''''    ...              e>>>>>>>>>                                            >>>k  ",
"  ---(((((((((((((((((((((()'''''''''''''''''''    ...       g>>>>>>>>>>>>>>>>%                                           >>>5  ",
"  ---(((((((((((((((((((((i''''''''''''''''''''    ...       >>>>>>>>>>>>>>>>>l                   %hhhhhh8555555m(((((((>>>>>5  ",
"  --faaaaaaaaaaaaaaaaaaaan'''''''''''''''''''''    ...55((((6>>>>>>>>>>>>>>>>>>>>>>>>>>>>>>>>>>>>>>>>>>>>>>>>>>>>>>>>>>>>>>>>5  ",
"  --'''''''''''''''''''''''''''''''''''''''''''    ..o>>>>>>>>>>>>>>>>>>>>>>>>>>>>>>>>>>>>>>>>>>>>>>>>>>>>>>>>>>>>>>>>>>>>>>>5  ",
"  -''''''''''''''''''''''''''''''''''''''''''''    .o>>>>>>>>>>>>>>>>>>>>>>>>>>>>>>>>>>>>>>>>>>>>>>>>>>>>>>>>>>>>>>>>>>>>>>>>5  ",
"  '''''''''''''''''''''''''''''''''''''''''''''    o>>>>>(((((((((((l55555555555hhhhhhhhhhh                                     ",
"                                                                                                                                ",
"                                                                                                                                ",
"                                                                                                                                ",
"  .............................................@@@@@@@@@@@@@!########p  $######!@@@@@@@@@@.................................b5   ",
"  ..................................................................b(  #.................................................9>5   ",
"  ...@@............................................................b>(  #................................................o>>5   ",
"  ...                                                         $$$$$>>(  #........................#                       >>>5   ",
"  ...$                                                             >>(  #.......................~                        >>>5   ",
"  @..$                                                             >>(  #......................                          >>>5   ",
"  @..$                                                             >>(  #.......        ......+                          >>>5   ",
"  @..$                                                           e>>>(  #......!        .......                          >>>5   ",
"  !..{                                                           >>>>(  #......         @.....:                          >>>5   ",
"  #..#                                                           >>>>(  #.....#          $..<                            >>>5   ",
"  #..#                                                           >>>>(  #.....#            :                             >>>5   ",
"  #..#                                                           >>>>5  #.....#                                          >>>5   ",
"  $..#                                                           >>>>5  #.....#                                          >>>5   ",
"  $..@                                                           >>>>5  #.....#                                          >>>5   ",
"  $..@                                                           >>>>5  #....{                                          h>>>5   ",
"  $..@                                 g                        k>>>>5  #..q                                           r>>>>5   ",
"   ..@                                 >k                       >>>>>5  #..#                                         5>>>>>>5   ",
"   ..@                                h>>k                     k>>>>>5  #..#                                        >>>>>>>>5   ",
"   ...                                m>>>&                    >>>>>>5  #..#                                       s>>>>>>>>5   ",
"   ...                                >>>>>                    7>>>>>5  #..#                                       >>>>>>>>>5   ",
"   ...                                >>>>>8                    g>>>>5  #..#                                      h>>>>>>>>>5   ",
"   ...                                >>>>>(                     k>>>5  #..#                                      >>>>>>>>>>5   ",
"   ...                                >>>>>>                      l>>h  #..#                                      >>>>>>>>>>5   ",
"   ...                                l>>>>>>6e                   (>>h  #..#                                         %56>>>>5   ",
"   ...                                7>>>>>>>>>h                 (>>h  #..#                                            h>>>5   ",
"   ...                               7>>>>>>>>>>>                 (>>h  #..#                                            h>>>5   ",
"   ...                              g>>>>>>>>>>>>5                (>>h  #..#                                            h>>>5   ",
"   ..t>>>>>>>>>>>>>>>>>>>>>>>>>>>>>>>>>>>>>>>>>>>>>>>>>>>>>>>>>>>>>>>h  #..l((((((((((((((((((((((((((((((((((((((((((((7>>>5   ",
"   .t>>>>>>>>>>>>>>>>>>>>>>>>>>>>>>>>>>>>>>>>>>>>>>>>>>>>>>>>>>>>>>>>h  #.>>>>>>>>>>>>>>>>>>>>>>>>>>>>>>>>>>>>>>>>>>>>>>>>>>5   ",
"   9>>>>>>>>>>>>>>>>>>>>>>>>>>>>>>>>>>>>>>>>>>>>>>>>>>>>>>>>>>>>>>>>>h  u>>>>>>>>>>>>>>>>>>>>>>>>>>>>>>>>>>>>>>>>>>>>>>>>>>>5   ",
"                                                                                                                                ",
"                                                                                                                                ",
"                                                                                                                                ",
"   ----------------------------------------d=========v   =============================================**********************8   ",
"  e-------------------------------------------------aa   ------------------------------------------------------------------f'   ",
"  %------------------------------------------------a'a   -----------------------------------------------------------------f''   ",
"  %---(((((((----------------w/////w]]]]]]]]]]]]]fx''a   --------------------------------------------ffffffffffffff]]]]]]]'''   ",
"  %---(((((((m-------------f((((((((((((((((((((((a''a   ----((((((((((((((((((((((((((((((((((((((((((((((((((((((((((((('''   ",
"  &--m(((((((]------------((((((((((((((((((((((((a''a   ----((((((((((((((((((((((((((((((((((((((((((((((((((((((((((((('''   ",
"  *--f(((((((]------------((((((((((((((((((((((((a''a   ----((((((((((((((((((((((((((((((((((((((((((((((((((((((((((((('''   ",
"  *--f(((((((]-----------g((((((((((((((((((((((((a''a   ----((((((((((((((((((((((((((((((((((((((((((((((((((((((((((((('''   ",
"  *--f(((((((^fffffffffff/((((((((((((((((((((((((a''a   ----((((((((((((((((((((((((((((((((((((((((((((((((((((((((((((('''   ",
"  8--]((((((((((((((((((((((((((((((((((((((((((((a''a   ----((((((((((((((((((((((((((((((((((((((((((((((((((((((((((((('''   ",
"  =--]((((((((((((((((((((((((((((((((((((((((((((a''a   ----((((((((((((((((((((((((((((((((((((((((((((((((((((((((((((('''   ",
"  =--]((((((((((((((((((((((((((((((((((((((((((((a''a   ----((((((((((((((((((((((((((((((((((((((((((((((((((((((((((((('''   ",
"  =--w((((((((((((((((((((((((((((((((((((((((((((a''a   =---((((((((((((((((((((((((((((((((((((((((((((((((((((((((((((('''   ",
"  d--/((((((((((((((((((((((((((((((((((((((((((((a''a   =---((((((((((((((((((((((((((((((((((((((((((((((((((((((((((((('''   ",
"  ---/((((((((((((((((((((((((((((((((((((((((((((a''a   =---((((((((((((((((((((((((((((((((((((((((((((((((((((((((((((('''   ",
"  ---/((((((((((((((((((((((((((((((((((((((((((((a''a   =---((((((((((((((((((((((((((((((((((((((((((((((((((((((((((((('''&  ",
"  ---(((((((((((((((((((((((((((((((((((((((((((((a''a   =---((((((((((((((((((((((((((((((((((((((((((((((((((2''}a(((((('''c  ",
"  ---(((((((((((((((((((((((((((((((((((((((((((((a''a   =---(((((((((((((((((((((((((((((((((((((((((((((((((i''''''''n(('''c  ",
"  ---(((((((((((((((((((((((((((((((((((((((((((((a''a   =---((((((((((((((((((((((((((((((((((((((((((((((((}''''''''''(('''c  ",
"  ---(((((((((((((((((((((((((((((((((((((((''''''a''a   c---(((((((((((((((((((((((((((((((((((((((((((((((n'''''''''''2('''c  ",
"  ---((((((((((((((((((((((((((((((((((((((j'''''''''a   *---((((((((((((((((((((((((((((((((((((((((((((((0''''''''''''a('''c  ",
"  ---((((((((((((((((((((((((((((((((((((((i'''''''''a   *---((((((((((((((((((((((((((((((((((((((((((((2a'''''''''''''4(''']  ",
"  ---((((((((((((((((((((((((((((((0i''''''''''''''''a   *---(((((((((((((((((((((((((((((((((((((y''''''''''''''''''''''(''';  ",
"  ---((((((((((((((((((((((((((((x'''''''''''''''''''a   *---((((((((((((((((((((((((((((((((2222'''''''''''''''''''''''''''';  ",
"  --;yyyyyyyyyyyyyyyyyyyyyyyyyyi'''''''''''''''''''''a   *--y'''''''''''''''''''''''''''''''''''''''''''''''''''''''''''''''';  ",
"  -f'''''''''''''''''''''''''''''''''''''''''''''''''a   *-a''''''''''''''''''''''''''''''''''''''''''''''''''''''''''''''''';  ",
"  f''''''''''''''''''''''''''''''''''''''''''''''''''a   *a'''''''''''''''''''''''''''''''''''''''''''''''''''''''''''''''''';  ",
"  aaaaaaaaaaaaaaaaaaaaaaaaaaaaaaaaaaaaaaaaaaaaaaaaaaa0   za0;;;;;;;;;;ccccccccccc                                               ",
"                                                                                                                                "};
